<svg xmlns="http://www.w3.org/2000/svg" width="110" height="110" viewBox="0 0 110 110"><style>.a{fill:#796f64;}.b{fill:#bda496;}.c{fill:#cec1a8;}.d{fill:#8c806d;}.e{fill:#999080;}.f{fill:#ccbc9b;}.g{fill:#a49a8c;}.h{fill:#594b3d;}.i{fill:#493f34;}.j{fill:#554b3f;}.k{fill:#6b5a50;}.l{fill:#c6bbaa;}.m{fill:#d6c7b8;}.n{fill:#e8dac9;}</style><rect class="a" x="0" y="0" width="110" height="110"/><path class="b" d="M27.9,56.9c6-1.1,12.1-2.2,17.4,2.3,2.4,1.9.2,4.3-.5,5.3a27.92,27.92,0,0,0-5.2,13c-.5,4-5.2,5.6-9.6,3.8-3.3,0-6.6-.1-10-.1-7.2-.1-7.2-.1-6.9-7.3.6-3.2.5-6.5.8-9.8.5-4.6,1.8-5.9,6.3-6,2.6-.1,5.3.2,7.9-.5a3.35,3.35,0,0,1,1,0A1.7,1.7,0,0,1,27.9,56.9Z"/><path class="c" d="M16.8-10.2c1.6-.3,3.3-.5,4.9-.8,4.6-.7,7,1.1,6.5,6,.2.3.5.6.5.8.4,13,.2,13.3-12.6,14.7A76.62,76.62,0,0,0,6.7,12c-1.7.3-3.3.6-4.5-1.1C1.1,10.1.1,9.2.2,7.7.7,2-.6-3.8.9-9.4c.9-1.4.3,2.8,2.1.4,1.4-2,4.3-1.1,6.5-.9C11.9-9.6,14.4-8.9,16.8-10.2ZM2.3,120.8c-1.1-.8-2.1-1.7-2-3.2.4-5.7-.9-11.4.6-17.1.9-1.1.4,2.7,2.1.5,1.5-2,4.3-1,6.5-.8,2.5.2,5,.9,7.4-.3,1.6-.3,3.3-.5,4.9-.8,4.6-.7,7,1.1,6.5,6,.2.3.5.6.5.8.4,12.9.2,13.2-12.6,14.6A76.62,76.62,0,0,0,6.8,122C5.1,122.3,3.5,122.5,2.3,120.8Z"/><path class="d" d="M85.1,18c4.8-.1,6,3.3,6.8,7A21.65,21.65,0,0,1,91,42.8c-1.1,2.2-3.4,4.1-6.1,2.8a18.5,18.5,0,0,0-14.4-1c-.5.2-.9-.4-1.3-.7-2-3.4,0-6.2,1.6-9,2.4-2.9,1.3-6.2.8-9.3-1-6.5,1-8.7,7.3-7.8C81,18.3,83,19,85.1,18ZM44.9-11.9C45.9-10.3,47-8.6,48-7c1.9,4.4,1.3,9,.6,13.4-.5,3.1-3.3,4.3-6.3,4.6a13.4,13.4,0,0,1-6.2-.9c-1.9-1.6-3.2-3.5-3-6.2C33.7-3.8,37.4-9.3,44.9-11.9Zm0,110c1,1.6,2.1,3.3,3.1,4.9,1.9,4.4,1.3,9,.6,13.4-.5,3.1-3.3,4.3-6.3,4.6a11.46,11.46,0,0,1-6.3-.9c-1.9-1.6-3.2-3.5-3-6.2C33.7,106.2,37.4,100.7,44.9,98.1Z"/><path class="b" d="M80.1,105.9c4.5,1.1,7.7,4.1,11.2,6.8,2.1,1.6,1.8,4,1.9,6.3.7,2.7-.9,3.4-3,3.8a23,23,0,0,1-7.8.2c-8-1.4-16.2.4-24.1-2.1a6.48,6.48,0,0,1-2.9-7c1.2-4.2,4.2-5.9,8.3-6,1.8,0,3.6,0,5.2-1.2.2-.2.3-.5.5-.7C72.8,103.3,76.4,104,80.1,105.9ZM58.2,11a6.48,6.48,0,0,1-2.9-7c1.2-4.2,4.2-5.9,8.3-6,1.8,0,3.6,0,5.2-1.2.2-.2.3-.5.5-.7,3.5-2.8,7.1-2.1,10.8-.2C84.5-3,87.8,0,91.3,2.7c2.1,1.6,1.8,4,1.9,6.3.7,2.7-.9,3.4-3,3.8a23,23,0,0,1-7.8.2C74.3,11.6,66.1,13.5,58.2,11Z"/><path class="e" d="M56.2,102.2c-1.9-3-1.5-6.1-.2-9.1.6-2.4,1.5-4.7,2.1-7.2,2.3-1.1,4.8-.8,7.2-1.1a1,1,0,0,1,1.38-.32,1,1,0,0,1,.32.32c2.7-.1,5.5,0,8.2-.3,3.4-.4,6.1.4,7.8,3.6,2.1,3.7,1.1,7.7.8,11.5a3.3,3.3,0,0,1-3.3,3.3h0c-4.4.2-8.7,2.6-13.2,1C63.7,102.7,59.6,104.7,56.2,102.2Zm-23-53.4c-2.4-3.3-3.8-6.5,0-9.8a10.28,10.28,0,0,0,6.9-6.1,33.41,33.41,0,0,1,4-6.5c4.7-1.8,5.5-1.1,7.2,5.8,2.2,3.4,1.7,7.3,2.3,11-1.1,3.6-.6,8.6-5.5,9.4C42.8,53.5,37.1,54,33.2,48.8Z"/><path class="b" d="M80.2,80.2c-7.7-.5-10-5.5-7.1-15.2,1.1.2,1.9.1,1.9-1.3,4.7-1.4,9.5-.8,14.2-.7,3.3.1,5,2.1,5,5.5,0,1.8.1,3.6.1,5.4,1.3,4.4.3,6.6-3.8,6.9C87,81.3,83.5,81.7,80.2,80.2Z"/><path class="e" d="M18.1,29.9A17.5,17.5,0,0,1,16,15c5.3-1.4,10.8-1.1,16.1-1.9,3.2-.4,4.7,1.8,6.1,4,1.9,3.9.6,7.7-.4,11.5-.3,1.1-1.1,2.3-2.3,2.3C29.7,30.6,23.8,32.2,18.1,29.9Z"/><path class="f" d="M6.2,34c5.4-1.6,10.8-.9,16.2-.1,4.6.7,2.5,4.6,2.9,7.2,1.7,2.6.4,5.4.2,8.1-.1,1.4-1.8,3.2-3.4,3-4.3-.5-8.8,1-13-1.2a13,13,0,0,1-4.9-9C5.2,39.4,5.4,36.6,6.2,34Z"/><path class="c" d="M66.1,61c.2.7.5,1.5.7,2.2.2,4.4.9,8.8,1.2,13.2.4,6.7-.3,7.1-7.1,6.1a5.19,5.19,0,0,1-2.8-1.2c-7.6-.1-7.6-.1-7.5-9.9a5.19,5.19,0,0,0,.8-3.6c-.8-3.6-.5-7.4,2.7-9,3.4-1.7,7.4-1,10.8,1.3A2.17,2.17,0,0,1,66.1,61Z"/><path class="e" d="M115,62.1c.4,1.7.8,3.4,1.3,5,.6,3.2.5,6.4,1.6,9.5s-.4,5.4-4,5.6c-2.6.1-5.2.7-7.7-.4-6.9-2.5-7.8-4-6.3-10.9,1.2-5.9,5.9-8.1,10.5-10.5C112,60.8,114,59.9,115,62.1ZM-3.9,81.9c-6.9-2.5-7.8-4-6.3-10.9C-9,65.1-4.3,62.9.3,60.5c1.7.2,3.6-.7,4.6,1.6.4,1.7.8,3.4,1.3,5,.6,3.2.5,6.4,1.6,9.5s-.4,5.4-4,5.6C1.3,82.5-1.4,83-3.9,81.9Z"/><path class="f" d="M102.3,85.7c2.1.1,2.9,1.4,3.1,3.3.3,4.3-.1,8.7.5,13.1.4,2.6-1.3,5-4.9,4.9-2.6-.1-5.3.1-8-.1-2.8-.6-4.3-1.9-3.9-5.1.3-2.7-.7-5.5-1-8.2-.6-5.2,1.6-7.6,6.8-7.6C97.4,85.9,99.8,86.2,102.3,85.7Z"/><path class="e" d="M-9.8,27.9c-2.9-3.3-1.8-6.2.9-8.9a12.65,12.65,0,0,1,9-3.9c7.4-.2,7.7.1,8.3,10a2.47,2.47,0,0,1-.17,3.49,2.61,2.61,0,0,1-.43.31C5,31.1-6.9,30.4-9.8,27.9Zm109.9,0c-2.9-3.3-1.8-6.2.9-8.9a12.65,12.65,0,0,1,9-3.9c7.4-.2,7.7.1,8.3,10a2.47,2.47,0,0,1-.17,3.49,2.61,2.61,0,0,1-.43.31C115,31.1,103.1,30.4,100.1,27.9Z"/><path class="b" d="M2.1,95.1c-2.2-2-2-4.3-1-6.7s3.3-2.3,5.4-2.3c2.3-.1,4.6-.1,6.9-.3,4.7-.5,7.3,1.2,6.8,6.3,1.2,1.4.6,2.8-.8,3C13.7,95.9,7.9,98.2,2.1,95.1Z"/><path class="g" d="M104,33.1c2.6.1,3.9,1.9,4.9,3.9,2.3,3.6,1.6,7.6,1.3,11.4-.3,4-4.9,5.5-9.1,3.5-2-2.3-2.3-5.1-2-8,.8-1.2.4-2.5.4-3.8C99.6,36.8,100.6,34.2,104,33.1Z"/><path class="f" d="M72.2,58.9c-1.8-1-4.4-1.4-4-4.3.3-2.7,2.3-4.3,4.8-5.1,5.2-1.8,10.7.7,12.3,5.6.9,2-.2,3.2-1.8,3.9C79.7,60.2,76,61,72.2,58.9Z"/><path class="h" d="M30.1,81.2c7.8-1.4,7.9-1.4,8.9-9.5a13.84,13.84,0,0,1,3.7-7.3,10.1,10.1,0,0,0,2.5-5.2c3.6,0,2.5,2.3,1.9,4.1A26.75,26.75,0,0,1,44,69.4,16.73,16.73,0,0,0,40.9,80a7.8,7.8,0,0,1-7.6,4.4A102.24,102.24,0,0,0,16.7,84a3.22,3.22,0,0,1-2.6-1C19.3,80.8,25,83.1,30.1,81.2Z"/><path class="e" d="M37.1,85a6.81,6.81,0,0,1,4.1,6c.5.7.7,1.9-.2,2-3.6.7-6.9,3.3-10.8,2.1-2.2-.3-4-1.1-4.9-3.3a17.2,17.2,0,0,1,4.8-6c.1-.3.2-.5.3-.8C32.5,83.3,34.8,83.5,37.1,85Z"/><path class="i" d="M69.2,44.1c5.2-1.7,10.3-2.4,15.6.3,2.9,1.5,4.4-1.1,5.6-3.4,2.7-5.1,1.9-10.6,1.5-16,.1-1,.2-1.9.3-3.2,3.1,5.3,3.2,17.2.2,21.5-1.8,2.6-4,4.7-7.5,3.4-4.5-1.6-9-2.3-13.7-.9C69.9,46.3,68.9,45.7,69.2,44.1Zm-33.1-34C47.7,9.8,49.1,7.8,48-7c2.1,2.2,2.1,2.2,2.4,11,.2,5.2-1.7,7.5-6.9,8C40.9,12.2,38.3,12.2,36.1,10.1Zm0,110c11.6-.3,13-2.3,11.9-17.1,2.1,2.2,2.1,2.2,2.4,11,.2,5.2-1.7,7.5-6.9,8C40.9,122.2,38.3,122.2,36.1,120.1Z"/><path class="j" d="M58.2,11c9.1.5,18.2,0,27.3,1.4,3,.5,6-.2,7.7-3.3.5-.8,1-1.6,1.6-2.6,1.3,3.9.4,6.2-3,7.3a11,11,0,0,1-4.4.6c-8.5-.3-17.1-.7-25.6-1.2C60.3,13.2,58.2,13.5,58.2,11Z"/><path class="e" d="M63.2,25.9l2.1,1.2c2.1,5.8-.2,11.6-.4,17.3a1.76,1.76,0,0,1-1.68,1.84,1.73,1.73,0,0,1-1.12-.34c-4.1-.3-4-3.2-3.8-6.1a51.1,51.1,0,0,0,.8-7.9C59.2,29.1,60.2,26.8,63.2,25.9Z"/><path class="j" d="M56.2,102.2c5.9-.1,11.9-.3,17.8-.3,8.2,0,9.2-.8,9.2-8.9,0-1.6-.1-3.3-.2-4.9,4.4,5.2,2.7,15.3-2.9,16.9-7.6-.8-15.4.8-23-.9C56.8,103.4,56.5,102.8,56.2,102.2Zm1.9-21a10.48,10.48,0,0,1,2.5-.1c6.7.8,7.2.3,6.4-6.5-.4-3.8-1.7-7.5-.2-11.3.5-.4,1.3-1.7,1.2-1.4-1.3,7.6,4,15.5-1.2,22.9H65.1c-3.8-1.4-7.8-.6-12.4-1.2C54.6,81.4,56.8,82.3,58.1,81.2Z"/><path class="e" d="M104.1,0c2.9,2.5,1.8,6,2.1,9.1-.1,3.3-1.8,4.2-4.8,3.1C99,11.1,98,9,97.3,6.7,97.3,2.2,99.7,0,104.1,0Z"/><path class="j" d="M2.3,10.8C9,9.7,15.6,8.1,22.5,8.2c3.4.1,5.1-1.7,5.1-5.3,0-2.6.4-5.3.6-7.9.3-.6.7-1.1,1.7-2.8-.2,6.4-.5,11.6-.7,16.8-1.2,1.2-2.1,2.7-4.5,2.2-5.3-1.1-10.5.8-15.8,1.3-2.4.2-4.6.7-6.8-.4C1.2,11.5,2,11.2,2.3,10.8Zm0,110c6.7-1.1,13.3-2.7,20.2-2.6,3.4.1,5.1-1.7,5.1-5.3,0-2.6.4-5.3.6-7.9.3-.6.7-1.1,1.7-2.8-.3,6.4-.6,11.6-.8,16.8-1.2,1.2-2.1,2.7-4.5,2.2-5.3-1.1-10.5.8-15.8,1.3-2.4.2-4.6.7-6.8-.4C1.2,121.5,2,121.2,2.3,120.8Z"/><path class="c" d="M98.2,59.2c-1,0-2,0-3-.1s-2.2-.2-2-1.6c.1-.9,1.1-1.3,1.9-1.3,7.4-.1,14.9-.2,22.3-.2.3,0,.6.7.9,1.1.1,2.8-1.5,3.1-3.9,3.2a32.49,32.49,0,0,0-5.4.3C105.5,59.2,101.5,61.6,98.2,59.2Zm-110,0c-1,0-2,0-3-.1s-2.2-.2-2-1.6c.1-.9,1.1-1.3,1.9-1.3C-7.5,56.1-.1,56,7.4,56c.3,0,.6.7.9,1.1.1,2.8-1.5,3.1-3.9,3.2a32.49,32.49,0,0,0-5.4.3C-4.5,59.2-8.4,61.6-11.8,59.2Z"/><path class="k" d="M-8.8,51.9C-2.1,51.1-1,49.8-1,43V37C2.4,40.6,3.3,49,.6,52.6-1.8,55.8-6.2,55.5-8.8,51.9ZM101.2,51.9c6.7-.8,7.8-2.1,7.8-8.9V37c3.4,3.6,4.3,12,1.6,15.6C108.1,55.8,103.8,55.5,101.2,51.9Z"/><path class="j" d="M100.1,27.9c7.7,2.8,14.9,1.6,18.2-2.8.4-1.6.7-3.2,1.1-4.8,3.6,5.8,1.6,10.3-4.8,10.9a44.93,44.93,0,0,1-8.9.4C103.5,31.4,100.4,31.6,100.1,27.9ZM-9.8,27.9c7.7,2.8,14.9,1.6,18.2-2.8.4-1.6.7-3.2,1.1-4.8,3.6,5.8,1.6,10.3-4.8,10.9a44.93,44.93,0,0,1-8.9.4C-6.5,31.4-9.6,31.6-9.8,27.9Z"/><path class="l" d="M102.3,85.7c-2.4,1.5-5.1,1.2-7.7,1.3-2.4.1-4.6.9-4.8,3.4-.5,5.5-1.3,11.2,3.4,15.7-.4,2.4-1.8,1.2-3,.9-2.3-3-3.6-16.5-1.9-19.6,1.1-1.9,2.8-2.2,4.7-2.2C96.1,85.1,99.2,84.2,102.3,85.7ZM66.1,61c-1.4-.5-2.8-1.1-4.2-1.5-5.6-1.5-9.4,1.6-9.4,7.4,0,2.9,0,2.9-1.9,4.4a41.94,41.94,0,0,1-.4-5c.2-3-1.4-7.2,2.2-8.5a15.37,15.37,0,0,1,13,1.4C65.9,59.4,65.9,60.4,66.1,61ZM27.9,56.9h8.4v.8c-4.4.5-8.7,1.3-13.1,1.3-5.4,0-7.9,2.5-8.5,7.6-.3,2.5-.9,4.9-1.4,7.3-.1-3.9-.2-7.9-.2-11.8,0-3.1,1.7-4.5,4.6-4.7C21,57.2,24.5,57,27.9,56.9Z"/><path class="h" d="M18.1,29.9c4,0,8,.1,11.9.1,6.1,0,7.6-1.3,8-7.4.1-1.8.1-3.6.2-5.5,2,1.9,1.9,4.3,1.6,6.8-.2,1.8-.6,3.5.6,5.1a.72.72,0,0,1-.34,1L40,30C32.7,32.7,25.4,33.9,18.1,29.9Z"/><path class="j" d="M90.1,107l3-.9c3.5-1,7.6,1.6,10.5-1.3s.3-7,.7-10.5c.2-1.8.7-3.6,1-5.3,1.9,2.4,2,16.7-.3,17.8C100.2,109.1,95.1,108.4,90.1,107ZM9.1,51c3.3,0,6.6-.4,9.9,0,4.3.5,6.2-1.2,6.1-5.4,0-1.5.1-3,.2-4.4.5-.5,1.1-1,1.6-1.6,1.7,2.5-1.1,14.3-3.7,14.2C18.5,53.6,13.3,54.3,9.1,51Zm24.1-2.2a20.93,20.93,0,0,0,6.5,2.3c8.5,2.1,10.9.6,12.6-8.1,2.6-.2,2.8.2,1.9,4-.3,1-.6,2-.9,2.9-1.3,3.5-3.4,5.6-7.4,4.2-2.95-.19-5.89-.52-8.8-1C35,52.7,33,51.6,33.2,48.8Zm47,31.4a44.15,44.15,0,0,1,6.3.1c4.8.5,7.6-1.2,7.8-6.3.4-1.2.8-2.5,1.1-3.8,3,7.7.1,12.2-7.8,12.1-3.2,0-6.4-.3-10.6-.5A28.94,28.94,0,0,0,80.2,80.2Z"/><path class="g" d="M85.1,18a26.23,26.23,0,0,1-3.8,1c-9.3.8-9.3.8-8.4,9.8.2,2.4,0,4.6-2.1,6.2a32.64,32.64,0,0,0-.4-10.8c-.9-5.6,2.3-8.4,7.9-7.3C80.5,17.4,82.8,17.7,85.1,18Z"/><path class="k" d="M2,12.1c9-1,18.1-2.1,27.1-3.1-.8,2.6-2.9,2.8-5.2,2.9s-4.7-.2-6.8,1.2c.2.8-.1,1.2-1,1-2.2-1.1-4.4-.9-6.7-.5C6.8,14.1,4.2,14.2,2,12.1Zm-2.9,47c3-.8,6.8,1.4,9.2-2.1,2.8,4.2-1.5,3.9-3.3,5.1H0c-1.3.9-2.7,1.4-3.9-.2-2.9-1.3-6,.6-8.9-.1-2-.5-1.9-1.2.1-1.6C-8.8,59-4.8,60-.9,59.1Zm109.9,0c3-.8,6.8,1.4,9.2-2.1,2.8,4.2-1.5,3.9-3.3,5.1h-5c-1.4.9-2.7,1.4-3.9-.3-2.9-1.3-6,.6-8.9-.1-2-.5-1.9-1.2.1-1.6C101.2,59,105.2,60,109,59.1Z"/><path class="e" d="M48.4,91.2A10.45,10.45,0,0,1,43.9,85c-.5-1.7-.3-3.6,1.2-4.4,1.7-1,2.3,1.1,3.2,2.2A19.85,19.85,0,0,0,50.2,85a4,4,0,0,1,2,4.9,2.72,2.72,0,0,1-3.56,1.42Z"/><path class="k" d="M37.1,85c-2.3,0-4.5.1-6.8.1a23,23,0,0,0-9.8-.5c-2.3.4-4.7.5-6.3-1.8,5.6,0,11.1.1,16.7.1,3.7,0,7.2-.7,10.1-3.1C40.6,82.3,38.7,83.6,37.1,85Z"/><path class="j" d="M2.1,95.1c6.5,1.5,12.6,1.1,18.1-3.1.4-.9.8-1.8,1.6-3.7,1.5,3.5,1.5,6.6-1.5,7.5C14.3,97.4,8,98.9,2.1,95.1Z"/><path class="k" d="M57.1,104.1c7.7.3,15.4-2.3,23,.9v.9c-3.6.1-7.2.2-10.8.2C65.2,105.7,60.9,106.6,57.1,104.1Z"/><path class="j" d="M-3.9,81.9c1.7,0,3.3,0,5-.1,4.2-.3,6.6-2,5.4-6.7a21,21,0,0,1-.2-7.9c2,4.2,2.3,8.8,2.6,13.3.1,1.7-1.8,2.2-3.3,2.4a32.86,32.86,0,0,1-9.9-.1c-.1,0-.2-.2-.3-.3C-4.4,82.3-4.1,82.1-3.9,81.9Zm110,0c1.7,0,3.3,0,5-.1,4.2-.3,6.6-2,5.4-6.7a21,21,0,0,1-.2-7.9c2,4.2,2.3,8.8,2.6,13.3.1,1.7-1.8,2.2-3.3,2.4a32.86,32.86,0,0,1-9.9-.1c-.1,0-.2-.2-.3-.3C105.6,82.3,105.9,82.1,106.1,81.9Z"/><path class="m" d="M16.8,99.8c.8.1,1.6.2,2.5.4a2,2,0,0,0,.1.8H11.6c-7.7.1-8,.3-10.2,8.2-.2-3.4-.3-6-.4-8.6,2.9-2.7,6.3-1.1,9.5-1C12.5,99.7,14.7,99.7,16.8,99.8ZM75,63.8c1.5.1,3,.3,4.4.4A13.66,13.66,0,0,0,73.2,69c0-2-.1-3-.1-3.9A20.56,20.56,0,0,1,75,63.8Z"/><path class="j" d="M62,46c3.1-1.7,2.3-4.9,2.7-7.5.5-3.7.4-7.6.6-11.3,3.8,6.3.8,12.7-.2,19a2.15,2.15,0,0,1-2.57,1.64,2,2,0,0,1-.63-.24C61.1,47.3,61.8,46.5,62,46Z"/><path class="g" d="M44.9,98.1a26.89,26.89,0,0,0-11.8,15.8C33.2,104,36,100.2,44.9,98.1Zm0-110A27.55,27.55,0,0,0,33.1,3.9C33.2-6,36-9.8,44.9-11.9Z"/><path class="b" d="M68.9-3.2c1.1.1,2.3.2,3.4.4-6,1.6-12.7,1.1-17,6.8C55-.1,56.9-2.3,60.9-2.6Zm0,110c1.1.1,2.3.2,3.4.4-6,1.6-12.7,1.1-17,6.8-.3-4.1,1.6-6.3,5.6-6.6C63.6,107.1,66.2,107,68.9,106.8Z"/><path class="j" d="M72.2,58.9c4.6-.5,10,2,13.1-3.8,1.3,1,1.2,2.2.4,3.4-1.9,2.7-11.5,3.4-14,1.1C71.6,59.6,72,59.1,72.2,58.9Zm-42,36.3c3.4-2.1,8-1,11-4.2,2.5-.1,2.8,1.9,1.2,2.5-3.7,1.6-7.4,3.6-11.7,2.9C30.5,96.4,30.4,95.6,30.2,95.2Z"/><path class="b" d="M40,30c.15-.33.28-.66.4-1,1.2-.9,2.5-1.7,3.7-2.6C41.7,31.7,40.8,38.3,33.2,39,36,36.4,39.5,34.3,40,30ZM16.2,14.1a9.44,9.44,0,0,0,1-1c5,0,10-.1,15-.1-5.2,1.7-11.3.4-15.8,5.6-.1-1.7-.2-2.7-.3-3.7C16.1,14.7,16.2,14.4,16.2,14.1Z"/><path class="j" d="M54.1,47a4.85,4.85,0,0,0-1.9-4c-.3-3.6-.7-7.2-1-10.8C55.7,36.5,54.8,41.7,54.1,47Z"/><path class="g" d="M106.1,61.9l3.9.3c-4,2.3-7.9,4.6-10.1,8.9C100.1,66.7,101.3,63,106.1,61.9Z"/><path class="g" d="M63.2,25.9c-4.1,3.8-2.8,9.4-5,13.9a70.62,70.62,0,0,1,.2-9.2C58.8,28.1,59.4,25.2,63.2,25.9Z"/><path class="j" d="M48.4,91.2c3.3-1.3,2.9-3.6,1.7-6.2,3,.7,4.1,2.9,3.1,5.5C52.3,92.6,50.3,93.1,48.4,91.2Z"/><path class="n" d="M6.2,34c1.2.1,2.3.1,4.8.3C6.7,36.1,6,39.4,4.2,42,3.8,39,2.7,35.9,6.2,34Z"/><path class="b" d="M104,33.1c-2.8,3.1-3.8,6.9-4.9,10.8,0-2.3-.1-4.6.1-6.9C99.4,34.2,100.8,32.5,104,33.1Z"/><path class="h" d="M101.4,12.1A6.38,6.38,0,0,0,106.2,9c.5-1.5.9-3.1,1.7-5.7.5,3.9.6,6.7-1.8,8.8C104.6,13.5,102.9,14.1,101.4,12.1Z"/><path class="b" d="M58.1,85.9l5.4.3c-4.3.4-5.6,4-7.5,6.9C56.1,90.5,55.7,87.8,58.1,85.9ZM30,85.9c.4.3,1.6.2.8,1.2-.4.5-1.1.7-1.6,1.2l-3.9,3.6A5.67,5.67,0,0,1,30,85.9Z"/><path class="j" d="M45.8,54.1c2.9-.7,5.5-1.8,7.4-4.2C51.6,55.3,50.5,55.9,45.8,54.1Z"/><path class="b" d="M104.1,0a10,10,0,0,0-6.8,6.6C97.1.3,97.4,0,104.1,0Z"/><path class="j" d="M110,15l-9,3.9C102.7,14.8,106.3,14.6,110,15Zm-1,44.1a28.92,28.92,0,0,1-11.7,1c.3-.3.5-.6.8-.9A36.21,36.21,0,0,1,109,59.1Z"/></svg>
