<svg xmlns="http://www.w3.org/2000/svg" width="110" height="110" viewBox="0 0 110 110"><style>.a{fill:#bea994;}.b{fill:#5e5348;}.c{fill:#ddcfbf;}.d{fill:#b7a28b;}.e{fill:#cbbda6;}.f{fill:#8a806e;}.g{fill:#cab999;}.h{fill:#4d4133;}.i{fill:#574c40;}.j{fill:#92816e;}.k{fill:#95877d;}.l{fill:#9e9286;}</style><rect style="fill:#786d63;" width="110" height="110"/><path class="b" d="M64.75,82.33a35,35,0,0,0,5.32-.16c5.36.08,8,.12,9.27-1.09.59-.58,1.47-1.9,1-5.09l1.2.17a5.33,5.33,0,0,1,1.07,5c-.35,1.61-.93,3.16-1.4,4.74a4.79,4.79,0,0,1-1.07.18,2.1,2.1,0,0,0-1.87.92l-1,.08a2.73,2.73,0,0,0-3-2,34.24,34.24,0,0,1-7.9.13c-.37,0-.74,0-1.11,0h0Z"/><path class="c" d="M85.66,70.89c-.21-6.39,4.81-6.38,10.15-6.41L96.06,66Z"/><path class="d" d="M49.64,0a30.11,30.11,0,0,0-2.21,6.66,28,28,0,0,1,.3-5.72,7.38,7.38,0,0,0,0-.94Z"/><path class="e" d="M16.35,0h25.4a31.23,31.23,0,0,0-.36,6.34c0,3.12-1.49,4.47-4.51,4.05a27.34,27.34,0,0,0-9.19.74,30.05,30.05,0,0,1-5.51.83c-.41-.4-.87,0-1.3-.08a6.49,6.49,0,0,1-4.57-4.41A20.83,20.83,0,0,1,16.35,0Z"/><path class="e" d="M37.26,100.48a3.7,3.7,0,0,1,4.66,1.17,6.37,6.37,0,0,1,1.35,2.14A35.85,35.85,0,0,0,41.75,110H16.35a11.1,11.1,0,0,1,.18-2.3c.29-3.21,1.52-4.71,4.68-5.15a36.74,36.74,0,0,1,10.73-.17A5.08,5.08,0,0,0,37.26,100.48Z"/><path class="f" d="M50.5,12.17l-1.21-.94a4.54,4.54,0,0,1-1.86-4.57A30.11,30.11,0,0,1,49.64,0H62.35V5.49C62,6.4,61.66,7.3,61.3,8.2a5.55,5.55,0,0,1-4.75,3.65A47.08,47.08,0,0,1,50.5,12.17Z"/><path class="g" d="M0,107.05V87.66c2.46,0,8.89,0,7.28,5.08a5.69,5.69,0,0,1-3.12,3.74c-2.88,1.27,1.66,5.19,1.87,6A11.2,11.2,0,0,0,6.94,105a1.18,1.18,0,0,0,.87.75,3.84,3.84,0,0,1-3.29,1.5C3,107.25,1.51,107,0,107.05Z"/><path class="f" d="M57.2,100.2c-.17.1,5.19-.39,5,1.61.25,2.73.08,5.46.13,8.19H49.64a2.5,2.5,0,0,1,.43-1,27.71,27.71,0,0,1,3.65-5C54.86,102.68,56,101.45,57.2,100.2Z"/><path class="h" d="M22.18,12a30.05,30.05,0,0,0,5.51-.83,27.34,27.34,0,0,1,9.19-.74c3,.42,4.54-.93,4.51-4.05A31.23,31.23,0,0,1,41.75,0h2.06a65.08,65.08,0,0,1-.45,6.83c-.12,1.48,0,2.95-.07,4.43a75.29,75.29,0,0,1-10.58,1.4c-4.26.29-8.53.5-12.81.48A3.56,3.56,0,0,1,22.18,12Z"/><path class="e" d="M7.81,105.72a1.18,1.18,0,0,1-.87-.75A11.2,11.2,0,0,1,6,102.49c-.21-.82-4.75-4.74-1.87-6a5.69,5.69,0,0,0,3.12-3.74c1.61-5-4.82-5.08-7.28-5.08V85.94A13.3,13.3,0,0,1,8.1,87.8a5.82,5.82,0,0,1,1.75,1.6c-.39,1.37-.83,2.73-1.17,4.11a11,11,0,0,0,.05,6.41A5.91,5.91,0,0,1,7.81,105.72Z"/><path class="h" d="M7.81,105.72a5.91,5.91,0,0,0,.92-5.8,11,11,0,0,1-.05-6.41c.34-1.38.78-2.74,1.17-4.11a1.69,1.69,0,0,1,1.41,1.53A6,6,0,0,1,11,93.8a11.62,11.62,0,0,0-.27,6.83,10.83,10.83,0,0,1,.1,5.48,4.06,4.06,0,0,1-4.2,3.33c-1.6.06-3.19-.18-4.78-.25-.63,0-1.25-.09-1.88-.08v-2.06c1.51-.1,3,.2,4.52.17A3.84,3.84,0,0,0,7.81,105.72Z"/><path class="c" d="M37.26,100.48a5.08,5.08,0,0,1-5.32,1.9,36.74,36.74,0,0,0-10.73.17c-3.16.44-4.39,1.94-4.68,5.15a11.1,11.1,0,0,0-.18,2.3H14.63c.13-1.74-.17-3.48-.19-5.23,0-3.2,1.94-5,5.1-4.51a32.41,32.41,0,0,0,5.38.48,33.62,33.62,0,0,0,5.85,0C32.94,100.8,35.1,100.51,37.26,100.48Z"/><path class="i" d="M107.78,68.38a8.62,8.62,0,0,1,1.92,4,13.5,13.5,0,0,1-1,8.16,5.52,5.52,0,0,1-7.36,2.87,6.55,6.55,0,0,1-1.93-1.08c1.32-.32,2.66-.59,4-1A4.79,4.79,0,0,0,107.08,77c.17-1.58.23-3.16.26-4.75C107.49,70.94,107.63,69.66,107.78,68.38Z"/><path class="e" d="M110,87.66a30.43,30.43,0,0,0-5.27,1,2.78,2.78,0,0,0-1.91,2.14,14.9,14.9,0,0,0-.15,6.51c.56,3.44-.62,1.5-1.09,5-.16-2.46-.77-4.85-.92-7.31a20.1,20.1,0,0,1,.51-6,1.61,1.61,0,0,1,.83-1.12,15.3,15.3,0,0,1,8-1.85Z"/><path class="g" d="M70.41,110a10.62,10.62,0,0,1,2.68-1.06,8.94,8.94,0,0,0,2.13-.85l4.1-.4c1.74.37,3.45.54,5-.61l2.91,0a37.71,37.71,0,0,0,4-.07l1.86.42a2.24,2.24,0,0,1-2.33,1.71c-2.7-.07-5.4.21-8.1.19a22.53,22.53,0,0,0-3.47.34c-.24,0-.45.1-.52.37Z"/><path class="d" d="M57.2,100.2c-1.16,1.25-2.34,2.48-3.48,3.75a27.71,27.71,0,0,0-3.65,5,2.5,2.5,0,0,0-.43,1H47.76a10.25,10.25,0,0,1,7.87-9.43C56.15,100.43,56.68,100.32,57.2,100.2Z"/><path class="g" d="M78.65,0c-.22.55-4.07,1.71-5.06,2.08a9.82,9.82,0,0,0-4.51,3.25,3.39,3.39,0,0,1-.56.51,5,5,0,0,1,.54-3.74A15.72,15.72,0,0,0,70.41,0Z"/><path class="d" d="M78.65,110c.07-.27.28-.34.52-.37a22.53,22.53,0,0,1,3.47-.34c2.7,0,5.4-.26,8.1-.19a2.24,2.24,0,0,0,2.33-1.71l2.4-.34a36.55,36.55,0,0,0,2.58,3Z"/><path class="b" d="M105,107l3.25.29a6.37,6.37,0,0,1,.2,1.74,5,5,0,0,1-3.78.65,3,3,0,0,1-1.77-1.11,2.66,2.66,0,0,1-.46-1.32C103.27,106.78,104.16,107.06,105,107Z"/><path class="b" d="M62.35,5.49V0h1.88a27.22,27.22,0,0,1,.16,4.86,5.1,5.1,0,0,1-.81,3.05C62.94,7.22,63,6.18,62.35,5.49Z"/><path class="e" d="M110,60.36a14.63,14.63,0,0,1-2.29-.18c-.7-.17-1.22-.55-1.23-1.32a1.41,1.41,0,0,1,1.23-1.43,8.78,8.78,0,0,1,2.29-.16Z"/><path class="b" d="M62.35,110c-.05-2.73.12-5.46-.13-8.19.09.06.24.12.25.2.55,2.53,1.33,5,1.75,7.56a2.06,2.06,0,0,1,0,.43Z"/><path class="h" d="M41.75,110a35.85,35.85,0,0,1,1.52-6.21,10.8,10.8,0,0,1,.55,3.91c0,.77,0,1.53,0,2.3Z"/><path class="h" d="M108.47,109.05a6.37,6.37,0,0,0-.2-1.74,4.61,4.61,0,0,1,1.73-.26v2.06Z"/><path class="f" d="M82.45,47c-.81-1-.59-2.15-.44-3.25a21.82,21.82,0,0,1,1.06-3.6c.11-.34.15-.71.23-1.07,2.32-1.26,3.29-4.31,3-6.71-.23-1.95-.71-3.88-.89-5.83-.24-2.52.44-4,2.5-4.67a14.4,14.4,0,0,1,5.84-.55,7.76,7.76,0,0,0,5.35-1c3.16-.16,4.79,1.76,5.91,4.36.09.21.16.43.24.64-.1,3.6.32,7.2.18,10.8a14.44,14.44,0,0,1-3.5,9.28c-1.59,1.81-3.14,2.41-5.44.71a9.51,9.51,0,0,0-7.83-1.57A27.86,27.86,0,0,0,82.45,47Z"/><path class="j" d="M69.39,103.09c-.89-2.86-.2-5.57-.14-8.27.49-.3.46-.87.66-1.32.94-2.14,2.12-4.06,4.38-5A7.61,7.61,0,0,1,78.81,88a28.33,28.33,0,0,0,8.91-.34A11.17,11.17,0,0,0,92,86.13a3.91,3.91,0,0,1,4,2.22q.16,5.93.34,11.84a6.51,6.51,0,0,1-4.8,2.79,20.33,20.33,0,0,1-2.47.13c-4.51,0-9,0-13.52.16Z"/><path class="j" d="M49.31,53A44,44,0,0,1,46,48.93a4.91,4.91,0,0,1,.64-6.55,16.85,16.85,0,0,1,3.71-3.13c3-.34,4.86-2.16,6-4.85.86-2,1.46-4.16,2.77-6,3.88-1.39,5.07,1.19,5.34,5,.67,5.55,1.94,10.85,0,16.33A6.24,6.24,0,0,1,58,54.36a19.32,19.32,0,0,1-4.89-.76A10.31,10.31,0,0,0,49.31,53Z"/><path class="k" d="M47.07,15.05c.45.06.9.1,1.35.18a3.57,3.57,0,0,1,2.94,2.52c.4,1.18.68,2.4,1,3.61a25.68,25.68,0,0,1-.75,7,4.58,4.58,0,0,1-3.81,3.49,16.81,16.81,0,0,1-3.32.3l-12-.13c-.32-.07-.44-.34-.58-.58a15.78,15.78,0,0,1-2.19-8.72c.24-.12.32-.38.46-.59,2-2.94,4.48-5.21,8.1-5.93,2,0,4,.06,5.92,0C45.27,16.18,46.41,16.13,47.07,15.05Z"/><path class="d" d="M96.06,66c4.93-.09,9.36,1.44,11.28,6.18,0,1.59-.09,3.17-.26,4.75a4.79,4.79,0,0,1-3.67,4.42c-1.31.39-2.65.66-4,1a68.28,68.28,0,0,1-7.8-1.05,23.4,23.4,0,0,1-3-.88,4.34,4.34,0,0,1-2.94-3.58,22.94,22.94,0,0,1,0-6A11.94,11.94,0,0,1,96.06,66Z"/><path class="h" d="M82.45,47a27.86,27.86,0,0,1,6.22-2.42,9.51,9.51,0,0,1,7.83,1.57c2.3,1.7,3.85,1.1,5.44-.71a14.44,14.44,0,0,0,3.5-9.28c.14-3.6-.28-7.2-.18-10.8a8.77,8.77,0,0,1,2.34,3.93,19.58,19.58,0,0,1-2.26,17.55,10.3,10.3,0,0,1-2.2,2.27,3.79,3.79,0,0,1-4.12.39,27.75,27.75,0,0,0-6.51-1.82,19.72,19.72,0,0,0-8.16.44,4.8,4.8,0,0,1-.91.21C82.54,48.41,82.16,47.87,82.45,47Z"/><path class="k" d="M73.36,48.37a5.45,5.45,0,0,1-2.09-4.29c0-.77,0-1.54.06-2.3,0,0,.14,0,.15-.07a20.36,20.36,0,0,0,1.7-5.88c.2-2.45.39-4.94,2.44-6.73l2.85.19c-.11,2.79-.18,5.58-.36,8.37a56.4,56.4,0,0,1-.81,7.21C76.84,47.25,75.75,48.19,73.36,48.37Z"/><path class="e" d="M34.36,58l4,0,2.74,0,7.73.12c2.18.14,4.36,0,6.54.2-1.65.29-3.3.63-5,.85a93.38,93.38,0,0,1-9.89.72,43,43,0,0,0-5.46.38c-3.83.63-5.34,2.52-5.6,6.61A30,30,0,0,1,28.86,72,6.13,6.13,0,0,1,27.51,75a89.47,89.47,0,0,1-.16-12.89,3.34,3.34,0,0,1,2.59-3.14C31.39,58.49,32.9,58.34,34.36,58Z"/><path class="c" d="M63.12,64.3l.36-4.1a9.3,9.3,0,0,1,7.36-1.68,22.39,22.39,0,0,1,3.34.65c-1.56.76-3.24,1.24-4.83,1.94a6.21,6.21,0,0,0-4,5.94c-.11,2.28-.14,4.56-.11,6.84A15.6,15.6,0,0,0,66,78.77a10.6,10.6,0,0,0,1.46,2.61,1.45,1.45,0,0,0,1.33.62,1.74,1.74,0,0,1,1.24.17,35,35,0,0,1-5.32.16c-1.36-4-1-8.3-1.38-12.46C63.18,68,63.19,66.16,63.12,64.3Z"/><path class="b" d="M19.9,13.14a123.38,123.38,0,0,0,12.81-.48c3.79-.33,7.33-.82,10.58-1.4,0,.92,0,1.83,0,2.74a3.57,3.57,0,0,1-1.65.2,5.75,5.75,0,0,0-3.36.93L35.1,15a7.54,7.54,0,0,0-4.63,1.28,6.55,6.55,0,0,0-3.57-1,13.15,13.15,0,0,0-4.55,1.06l-4-.16-.24-2.41Z"/><path class="l" d="M99.11,20.35a7.76,7.76,0,0,1-5.35,1,14.4,14.4,0,0,0-5.84.55c-2.06.67-2.74,2.15-2.5,4.67.18,1.95.66,3.88.89,5.83.28,2.4-.69,5.45-3,6.71a8.75,8.75,0,0,1,.39-3.21,11.14,11.14,0,0,0,0-7.06,11.22,11.22,0,0,1-.52-5.07,5.92,5.92,0,0,1,2.27-4.31A4.76,4.76,0,0,1,90,18.63C90.74,18.85,97.77,19.43,99.11,20.35Z"/><path class="i" d="M32.51,32.06l12,.13a16.81,16.81,0,0,0,3.32-.3,4.58,4.58,0,0,0,3.81-3.49,25.68,25.68,0,0,0,.75-7,3.07,3.07,0,0,1,2,3.6,30.07,30.07,0,0,0-.88,4.32l-2.1,5c-3.19.3-6.38-.18-9.57-.13a13.54,13.54,0,0,0-4.53.83c-.27.1-.54.18-.67.48-1.06-.26-2.16-.17-3.23-.33a8.23,8.23,0,0,0-.85-2.36C32.5,32.51,32.5,32.29,32.51,32.06Z"/><path class="g" d="M93.58,52.3a6.49,6.49,0,0,1,1.73.45c2.16.83,2.87,1.9,2.92,4.36l-1.67,1.38a11.41,11.41,0,0,0-4.9-.38,10.82,10.82,0,0,1-4.83-.2c-.75-.22-1.4-.52-1.58-1.38a2.22,2.22,0,0,1,.66-2.33,4.08,4.08,0,0,1,2.28-.88C90,53.08,91.92,53.33,93.58,52.3Z"/><path class="i" d="M73.36,48.37c2.39-.18,3.48-1.12,3.94-3.5a56.4,56.4,0,0,0,.81-7.21c.18-2.79.25-5.58.36-8.37,1.52,1,1.78,2.58,1.89,4.21a39.2,39.2,0,0,1-.6,7.33,15.58,15.58,0,0,0,.1,5.53A2.7,2.7,0,0,1,78,49.83a5.51,5.51,0,0,1-2.69.39A2.24,2.24,0,0,1,73.36,48.37Z"/><path class="h" d="M58.39,23.86c7.29-.55,14.59.84,20-3.05a1.57,1.57,0,0,1,1.94.66c0,2.47-1.13,3.65-3.64,3.77-2,.1-4-.14-6-.19a22.74,22.74,0,0,0-8.19.92C61.27,26.42,58.82,25.08,58.39,23.86Z"/><path class="h" d="M71.3,13.09l24,1.34v1c-5.11.15-10,.2-15.1.69-2-1.37-4.31-.87-6.53-.71C72.11,15.17,71.52,14.59,71.3,13.09Z"/><path class="h" d="M75.55,103.27c4.51-.16,9-.14,13.52-.16a20.33,20.33,0,0,0,2.47-.13,6.51,6.51,0,0,0,4.8-2.79h1.34c-.11.7-.2,1.4-.34,2.08a2.61,2.61,0,0,1-1.14,1.9l-5.21.33-3.75.5c-1.13-.77-1.74-.7-2.57.3-.11.13-.23.25-.35.37l-3.1,0a1.13,1.13,0,0,0-.41-.71,3.55,3.55,0,0,0-2.82-.87C77.09,104.1,76.16,104.13,75.55,103.27Z"/><path class="h" d="M62.35,5.49c.64.69.59,1.73,1.23,2.42a6.87,6.87,0,0,1-8.86,6.26,11.25,11.25,0,0,1-4.22-2,47.08,47.08,0,0,0,6-.32A5.55,5.55,0,0,0,61.3,8.2C61.66,7.3,62,6.4,62.35,5.49Z"/><path class="e" d="M33.35,35.09c1.07.16,2.17.07,3.23.33a7,7,0,0,0,1.5,1.09,3.49,3.49,0,0,1,1.62,2.74,6.63,6.63,0,0,0-.41,2.57c-.44-.15-.2-.73-.63-1-1.87-1-3.51-2.34-5.47-3.16a7.75,7.75,0,0,0-4.84-.53V35.73Z"/><path class="i" d="M80.36,76a26.46,26.46,0,0,1-.75-10c.11-1.59.19-3.18.28-4.78a2.64,2.64,0,0,1,2,2.82c-.11,4-.35,8.07-.34,12.11Z"/><path class="a" d="M59.09,28.43c-1.31,1.81-1.91,4-2.77,6-1.15,2.69-3,4.51-6,4.85.49-1.08,1.34-1.93,1.92-3a5.22,5.22,0,0,0,1.71-2.77c.36-1.4.64-2.82,1-4.22Z"/><path class="d" d="M75.62,29.1c-2.05,1.79-2.24,4.28-2.44,6.73a20.36,20.36,0,0,1-1.7,5.88s-.1,0-.15.07c.21-2.2-.17-4.39-.06-6.58.08-1.59.21-6.11,1.93-6.65a2.68,2.68,0,0,1,1.43,0A3,3,0,0,1,75.62,29.1Z"/><path class="k" d="M78.31,17.17A15.16,15.16,0,0,1,74.88,17s-13.59.4-16.33,1.2A3.3,3.3,0,0,0,56,20.9c-.07,1.69,1.19,2.29,2.39,3,7.29-.55,14.59.84,20-3.05Z"/><path class="l" d="M78.29,87a2.1,2.1,0,0,1,1.87-.92,4.79,4.79,0,0,0,1.07-.18c3.59.13,7.19.2,10.79.19a11.17,11.17,0,0,1-4.3,1.51,28.33,28.33,0,0,1-8.91.34C78.81,87.57,78.38,87.4,78.29,87Z"/><path class="b" d="M97.68,100.2H96.34q-.16-5.93-.34-11.84a2.37,2.37,0,0,1,1.7,1.84A17.26,17.26,0,0,1,98,98.87C97.9,99.32,97.79,99.76,97.68,100.2Z"/><path class="f" d="M38.27,15.13a5.75,5.75,0,0,1,3.36-.93,3.57,3.57,0,0,0,1.65-.2c.77.34,1.62.09,2.4.36.5.16,1.06.19,1.39.69-.66,1.08-1.8,1.13-2.85,1.17-2,.08-3.94,0-5.92,0Z"/><path class="b" d="M91,104.51l5.21-.33c-.08,1-.73,1.85-.73,2.87l-2.4.34L91.21,107A14.42,14.42,0,0,0,91,104.51Z"/><path class="b" d="M54.89,29.31c-.31,1.4-.59,2.82-1,4.22a5.22,5.22,0,0,1-1.71,2.77,8.53,8.53,0,0,0-.88-2.06l2.1-5Z"/><path class="b" d="M73.67,15.43c2.22-.16,4.48-.66,6.53.71.22.77,0,1.13-.87,1a8.68,8.68,0,0,0-1,0A15.16,15.16,0,0,1,74.88,17C74.74,16.26,73.9,16.08,73.67,15.43Z"/><path class="g" d="M104.73,88.66a2.78,2.78,0,0,0-1.91,2.14,14.9,14.9,0,0,0-.15,6.51c.56,3.44-.62,1.5-1.09,5,0,.62,0,1.25,0,1.87-.27,1.2-.29,2.33.87,3.14.81-.49,1.7-.21,2.56-.25l3.25.29a4.61,4.61,0,0,1,1.73-.26V87.66A30.43,30.43,0,0,0,104.73,88.66Z"/><path class="b" d="M67.31,37.37a4.08,4.08,0,0,0-2.88-3.93c.67,5.55,1.94,10.85,0,16.33A6.24,6.24,0,0,1,58,54.36a19.32,19.32,0,0,1-4.89-.76A10.31,10.31,0,0,0,49.31,53C49.09,57.8,64,57.2,66.39,54.23S67.62,40.48,67.31,37.37Z"/><path class="i" d="M109.19,11.18c0-2.13-.27-2.9-2.59-2.95q.72,3.79-3,5.46a9,9,0,0,1-3.67.71c-1.54,0-3.08-.13-4.62,0v1a5.82,5.82,0,0,0,4,1.72C102,17.32,109.17,16.43,109.19,11.18Z"/><path class="d" d="M78.65,0c-.22.55-4.07,1.71-5.06,2.08a9.82,9.82,0,0,0-4.51,3.25,3.39,3.39,0,0,1-.56.51c.12,3.83.74,4.3,2.78,7.25l24,1.34c1.54-.16,3.08,0,4.62,0a9,9,0,0,0,3.67-.71q3.73-1.66,3-5.46c0-3.5-6.5-6.94-8.22-8.23Z"/><path class="e" d="M91.66,58.11a10.82,10.82,0,0,1-4.83-.2c-.75-.22-1.4-.52-1.58-1.38a2.22,2.22,0,0,1,.66-2.33,4.08,4.08,0,0,1,2.28-.88c1.81-.24,3.73,0,5.39-1-.13-.06-.26-.11-.39-.18a9.22,9.22,0,0,0-10.28,1.36,3.11,3.11,0,0,0-1,3.48,6.52,6.52,0,0,0,1.89,2.9h0L84,60l.37,0h.31a5.23,5.23,0,0,1,1.58,0l.66,0a22.14,22.14,0,0,0,6,.06,7.35,7.35,0,0,0,3.65-1.52A11.41,11.41,0,0,0,91.66,58.11Z"/><path class="j" d="M18.69,63.81c.23,1.18,1.25,1.76,2,2.57-.23,1.46-.5,2.91-.67,4.37-.22,1.91-.2,3.81,1.14,5.4,0,.86,0,1.72,0,2.58-.16,2.69-.9,3.55-3.54,4-1.33.23-2.67.32-4,.47-2.58.34-4.91-.52-7.17-1.55a4.83,4.83,0,0,1-3-4.6A14.88,14.88,0,0,1,6.56,66.82c.9-1.12,2.11-1.91,3.08-2.95a1.94,1.94,0,0,0,.67-1.43h7.88C18.3,62.91,18.26,63.44,18.69,63.81Z"/><path class="l" d="M45.35,86.07,50.68,86a2.27,2.27,0,0,0,1,.47,8.37,8.37,0,0,1,4,3.8c-.11,2.9-.76,3.61-3.63,4a5.53,5.53,0,0,0-1.85.27l-5.64,1.74a6.6,6.6,0,0,1-2.25-.37,3,3,0,0,1-2.09-2.55c1.09-.77,1.52-2,2.26-3.06a3.15,3.15,0,0,1,2.61-1.62c.78,0,1-.51.54-1.16-.12-.19-.27-.37-.41-.55Z"/><path class="k" d="M64.64,92.27a2.24,2.24,0,0,1-2.26-1,11.06,11.06,0,0,1-2.67-6.58c-.41-5,3.66-5,5-2.34a7.33,7.33,0,0,1,.61,2.89,16.64,16.64,0,0,0,.53,2.93A3.48,3.48,0,0,1,64.64,92.27Z"/><path class="b" d="M75.55,103.27c.61.86,1.54.83,2.44.86a3.55,3.55,0,0,1,2.82.87,1.13,1.13,0,0,1,.41.71c-.2.34-.59.42-.89.62a1.72,1.72,0,0,0-1,1.36l-4.1.4a2.81,2.81,0,0,0-2-1.7,16.3,16.3,0,0,1-3.95-1.34c-.39-.22-1-.26-1-.8s.47-.74.84-1a2.28,2.28,0,0,1,.3-.17Z"/><path class="h" d="M13.55,83.19c1.33-.15,2.67-.24,4-.47,2.64-.44,3.38-1.3,3.54-4,.06-.86,0-1.72,0-2.58.5,0,.67-.65,1.18-.68.52,2,1.05,4,1.57,5.93a1.61,1.61,0,0,1,.11.92c-1.77.75-3.43,1.8-5.36,2.13A5.57,5.57,0,0,1,13.55,83.19Z"/><path class="e" d="M34.38,90.06a16.73,16.73,0,0,0-8.6-1.34c-2,.15-4,.14-6,.12a5.28,5.28,0,0,1-2.95-.67c4.07-1,8.16-1.72,12.36-1A16.14,16.14,0,0,1,34,88.76a1.07,1.07,0,0,1,.59.46C34.51,89.5,34.31,89.75,34.38,90.06Z"/><path class="b" d="M18.19,62.43H10.31a9.28,9.28,0,0,0-3-.19,4.13,4.13,0,0,1-2.8-1c2.45,0,4.89-.34,7.33-.5a17.42,17.42,0,0,1,7.51.86c.31.12.61.29.92.43-.46.34-1.07,0-1.54.34Z"/><path class="i" d="M64.64,92.27a3.48,3.48,0,0,0,1.25-4.12,8.35,8.35,0,0,1-.53-2.93l1.9,0h0a16.18,16.18,0,0,0,1.14,4c.87,2.09.23,3.35-1.94,3.94C65.38,93.5,65.1,93.36,64.64,92.27Z"/><path class="b" d="M25.43,96.92A8.21,8.21,0,0,1,29,95.74c1-.15,2.1-.24,3.15-.36a15.2,15.2,0,0,0,3.1.87,6.87,6.87,0,0,1-6.52,1.94A5.74,5.74,0,0,1,25.43,96.92Z"/><path class="i" d="M35.24,96.25a15.2,15.2,0,0,1-3.1-.87c2.06-.88,2.75-2.18,2.33-4.47a2.71,2.71,0,0,1-.09-.85c-.07-.31.13-.56.21-.84,2.65,1.19,3.84,3.48,2,5.7A3.51,3.51,0,0,1,35.24,96.25Z"/><path class="a" d="M78.29,87c.09.36.52.53.52.94a7.61,7.61,0,0,0-4.52.47c-2.26,1-3.44,2.91-4.38,5-.2.45-.17,1-.66,1.32,0-1.39.06-2.79.16-4.19a3,3,0,0,1,2.85-3.18,26.48,26.48,0,0,1,5-.33Z"/><path class="i" d="M50.16,94.53A5.53,5.53,0,0,1,52,94.26c2.87-.42,3.52-1.13,3.63-4,1.61,0,1.61,0,1.73,1.16.29,2.76-.73,4.06-3.55,4.47a13.61,13.61,0,0,1-2.63.23A2.2,2.2,0,0,0,50.16,94.53Z"/><path class="a" d="M45.18,87c.14.18.29.36.41.55.43.65.24,1.14-.54,1.16a3.15,3.15,0,0,0-2.61,1.62c-.74,1-1.17,2.29-2.26,3.06-1-2.84,0-4.79,2.78-5.77C43.69,87.33,44.44,87.17,45.18,87Z"/><path class="b" d="M50.16,94.53a2.2,2.2,0,0,1,1,1.56,17.15,17.15,0,0,1-3,1.74c-1.28.64-2.68.24-3.68-1.56Z"/><path class="b" d="M3.44,60.79l.17.08Z"/><path class="k" d="M18.4,16.25l4,.16,1,2.92c0,2.05.21,4.09,0,6.15-.3,3.37-1.64,5-4.91,5.62a15.87,15.87,0,0,1-2.29.24A66.22,66.22,0,0,1,6.56,31c-.75-.9-1.69-1.62-2.36-2.59a3.11,3.11,0,0,1-.41-3.46,55.52,55.52,0,0,1,3.06-5.35,5.68,5.68,0,0,1,5.35-2.36c1.91.1,3.89.37,5.7-.64C18.07,16.48,18.24,16.36,18.4,16.25Z"/><path class="l" d="M9.15,35.46c1.63.18,3.74,1.78,4.11,3.13-.12,3,0,6.06.12,9.09a5.85,5.85,0,0,1-4,5.81,15.53,15.53,0,0,1-3,.73C3.77,52.92,3.16,50.67,3.43,48a2.29,2.29,0,0,0,.33-1c.44-1.7.56-3.47.88-5.2C5.17,39,6.33,36.65,9.15,35.46Z"/><path class="b" d="M23.38,19.33a8.29,8.29,0,0,1,3.1,6.13c1,11.24-9.7,9.93-17.23,8.37A2.93,2.93,0,0,1,6.56,31a66.22,66.22,0,0,0,9.65.36,15.87,15.87,0,0,0,2.29-.24c3.27-.61,4.61-2.25,4.91-5.62C23.59,23.42,23.38,21.38,23.38,19.33Z"/><path class="j" d="M6.39,14.19c-1.1,0-2.76-.45-3.29-1.51A5.7,5.7,0,0,1,2.44,9.2c-.21-3,1.28-4.92,3.93-6.12.56-.26,1.27-.28,1.68-.86,2.87.95,3.29,6.83,2.29,9.22A5.34,5.34,0,0,1,6.39,14.19Z"/><path class="i" d="M6.38,54.22a15.53,15.53,0,0,0,3-.73,5.85,5.85,0,0,0,4-5.81c-.08-3-.24-6.06-.12-9.09.29,0,.36.26.45.46A22.14,22.14,0,0,1,16,49a10.54,10.54,0,0,1-3,7.27,1.16,1.16,0,0,0-.46.7L8.08,57l-1.54-.09A18.18,18.18,0,0,1,6.38,54.22Z"/><path class="c" d="M28.35,37.18a14.34,14.34,0,0,0-5.16,1,5.66,5.66,0,0,0-2.71,2.95,34.11,34.11,0,0,0-1.2,4.43,17.81,17.81,0,0,1-1.34-4.15c-.5-2.76.46-4.31,3.08-5.31a14.79,14.79,0,0,1,7.32-.4Z"/><path class="b" d="M22.31,75.47c-.51,0-.68.64-1.18.68-1.34-1.59-1.36-3.49-1.14-5.4.17-1.46.44-2.91.67-4.37,2,.07,2.44.64,2.2,2.53A48.11,48.11,0,0,0,22.31,75.47Z"/><path class="d" d="M9.15,35.46c-2.82,1.19-4,3.56-4.51,6.38-.32,1.73-.44,3.5-.88,5.2a2.29,2.29,0,0,1-.33,1c-.07-2.62,0-5.25-.14-7.88a7.23,7.23,0,0,1,.21-2,3.43,3.43,0,0,1,3-2.93A5.14,5.14,0,0,1,9.15,35.46Z"/><path class="d" d="M8.05,2.22c-.41.58-1.12.6-1.68.86C3.72,4.28,2.23,6.18,2.44,9.2c-.65.1-.92-.13-.89-.83C1.76,2.56,2.06,2.12,8.05,2.22Z"/><path class="i" d="M6.39,14.19a5.34,5.34,0,0,0,4-2.75,2.09,2.09,0,0,1,.5.08c1.36.52,1.53,1.38.41,2.32-.61.51-1.24,1-1.9,1.45C7.86,16.33,6.94,16,6.39,14.19Z"/><path class="c" d="M19.9,13.14a3.59,3.59,0,0,1,1-.8A3.54,3.54,0,0,1,22.18,12c-.41-.4-.87,0-1.3-.08a6.49,6.49,0,0,1-4.57-4.41,20.83,20.83,0,0,1,0-7.47H14.63a86.32,86.32,0,0,1-.13,8.81c-.13,1.08,2,5.34,3.66,5Z"/><path class="e" d="M8.08,57l-1.54-.09L0,57.27v3.09a7.33,7.33,0,0,1,3.44.43l.17.08a2.56,2.56,0,0,1,.88.42c2.45,0,4.89-.34,7.33-.5a17.42,17.42,0,0,1,7.51.86c.31.12.61.29.92.43s.36-.14.45-.33c.39-.85.83-1.69,1.17-2.57.5-1.28.16-1.79-1.22-1.92-2.18-.21-4.38-.15-6.58-.16h0l-1.54-.17L8.08,57"/><path class="b" d="M87.24,105v2l-2.91,0v-1.4c.12-.12.24-.24.35-.37C85.5,104.31,86.11,104.24,87.24,105Z"/><path class="a" d="M29.74,22.76c.24-2.15.49-4.31.73-6.46A7.54,7.54,0,0,1,35.1,15l3.17.11,0,1.11c-3.62.72-6.1,3-8.1,5.93C30.06,22.38,30,22.64,29.74,22.76Z"/><path class="e" d="M80.36,76a26.46,26.46,0,0,1-.75-10c.11-1.59.19-3.18.28-4.78-1.46-1.9-3.47-2.3-5.71-2.06-1.56.76-3.24,1.24-4.83,1.94a6.21,6.21,0,0,0-4,5.94c-.11,2.28-.14,4.56-.11,6.84A15.6,15.6,0,0,0,66,78.77a10.6,10.6,0,0,0,1.46,2.61,1.45,1.45,0,0,0,1.33.62,1.74,1.74,0,0,1,1.24.17C75.11,82.32,82.17,83.69,80.36,76Z"/><path class="b" d="M59.61,60.19c-1.08,2.36-2.42,4.59-3.67,6.87-1.95,3.55-3.58,7.2-3.82,11.34a2.54,2.54,0,0,1-2.24,2.7c-7.17,2-14.27.63-21.51,1.25.11,1.48.75,2.57,2.33,2.68a26.58,26.58,0,0,0,5,.19,48.41,48.41,0,0,1,5-.14,11.1,11.1,0,0,1,4.65,1L50.68,86c.1-.26.36-.35.57-.49a11.52,11.52,0,0,0,3.23-3c1.29-1.71.29-2.66,1.93-6.74.17-.44.31-.74.48-1.11A75.43,75.43,0,0,1,63.12,64.3l.36-4.1Z"/><path class="i" d="M98.91,58.19a8.15,8.15,0,0,0-.68-1.08l-1.67,1.38A7.35,7.35,0,0,1,92.91,60a22.14,22.14,0,0,1-6-.06l-.66,0a5.23,5.23,0,0,0-1.58,0h-.31L84,60a6.88,6.88,0,0,0,2.8,1.76,12.78,12.78,0,0,0,7.4.18,10.82,10.82,0,0,0,4-1.3A1.84,1.84,0,0,0,98.91,58.19Z"/><path class="a" d="M96.06,66c4.93-.09,9.36,1.44,11.28,6.18.15-1.28.29-2.56.44-3.84-.91-3.74-9.42-4.13-12-3.9Z"/><path class="a" d="M34.47,90.91a2.71,2.71,0,0,1-.09-.85,16.73,16.73,0,0,0-8.6-1.34c-2,.15-4,.14-6,.12a5.28,5.28,0,0,1-2.95-.67c-1.57.09-1.25-.21-1.68,1.33-.26.93-.49,1.87-.73,2.82A3.69,3.69,0,0,0,17.75,97c2.23.24,4.45.09,6.68.11a2,2,0,0,0,1-.14A8.21,8.21,0,0,1,29,95.74c1-.15,2.1-.24,3.15-.36,2.06-.88,2.75-2.18,2.33-4.47Z"/><path class="g" d="M39.29,41.82c-.44-.15-.2-.73-.63-1-1.87-1-3.51-2.34-5.47-3.16a7.75,7.75,0,0,0-4.84-.53,14.34,14.34,0,0,0-5.16,1,5.66,5.66,0,0,0-2.71,2.95,34.11,34.11,0,0,0-1.2,4.43c-.15,3,1.62,5.22,3.24,7.48a48.76,48.76,0,0,0,10-.3,8.51,8.51,0,0,0,5.84-3.47A8.6,8.6,0,0,0,39.29,41.82Z"/><path class="i" d="M39.7,39.25a6.63,6.63,0,0,0-.41,2.57c1,6.55-1.87,9.83-6.81,11a48.76,48.76,0,0,1-10,.3,7.67,7.67,0,0,0,3.39,2.33,13.34,13.34,0,0,0,5.46.69c1.67,0,2.56.58,3,1.88l4,0A8.61,8.61,0,0,1,40.65,54a2.54,2.54,0,0,0,.76-2c0-3.36-.19-6.72.63-10C42.47,40.25,41.66,39.45,39.7,39.25Z"/><path class="d" d="M27.51,78.22c0,1.25,0,2.51,0,3.77l.88.36c7.18-.62,14.23.79,21.51-1.25a2.54,2.54,0,0,0,2.24-2.7c.24-4.14,1.87-7.79,3.82-11.34,1.25-2.28,2.59-4.51,3.67-6.87-1.37-1.88-2.56-2.4-4.29-1.9-1.65.29-3.3.63-5,.85a93.38,93.38,0,0,1-9.89.72,43,43,0,0,0-5.46.38c-3.83.63-5.34,2.52-5.6,6.61A30,30,0,0,1,28.86,72,6.13,6.13,0,0,1,27.51,75v3.27"/></svg>
