<svg xmlns="http://www.w3.org/2000/svg" width="140" height="140" viewBox="0 0 140 140"><style>path{fill:lime;}</style><rect width="140" height="140"/><path d="M75.91,51.37C77.81,51.78,75.57,50,75.91,51.37Z"/><path d="M93.13,87.9c9.89,3.59.17-12.07-.4-.9Zm.2-2.78c3.75-4.28,5.8,4.94.31,2.08A2.32,2.32,0,0,1,93.33,85.12Z"/><path d="M76.21,66.22c2.29-1.58-4.65-.41-.5.1Z"/><path d="M74.3,54.63c.71,2.85-2.74-1.27-1.11,1.09C75.11,57.44,76.5,54.43,74.3,54.63Z"/><path d="M87.39,11c-1.76,1.37.36,6.55-1.91,7.42q5.94-.66,3.52-6.69c-.2-.33-1.14,5.82-1.61,5.24Z"/><path d="M83.77,1.57C86.2,2.21,83.33-1.46,83.77,1.57Z"/><path d="M81.45,3.46a11.61,11.61,0,0,0,6-.52c-1.07,1.31-11.57-3-6.23,4.87C81.77,6.87,81.29,4.8,81.45,3.46Z"/><path d="M94.44,96.11c-.2,3.74.13,6.76,1.31,2.41C94.52,98.5,95.74,96.07,94.44,96.11Z"/><path d="M92,95.81c.34-4,1-4.14,1.88-.39,2.77-.4-.14-7.58.64-1C93.94,90.47,91,89.35,92,95.81Z"/><path d="M72.08,39c-1.26,6.13,8.13,2.9,4.23-.89A5.78,5.78,0,0,0,72.08,39Zm1.71-.19c4.62-1.32,2.19,6.36-1.41,2.27C71.91,40,73.17,39.28,73.79,38.8Z"/><path d="M81,27.51c-1.23-7.22,4.74,2.66,3.91,2.38C91,32,83.23,23.35,88.52,28.67c0,0-.73-11.31-.93-3.72-2.58-2.12-5.41-.61-6.85-3.38C80.74,22.81,82.28,25.83,81,27.51Zm3.32-3.17C89.23,23.61,83.52,30.37,84.27,24.34Z"/><path d="M88.8,45.63c-.78-3.33-2,3.45-1,4.95C90.83,51.79,86.49,47,88.8,45.63Z"/><path d="M89.3,41c-4.17,2.58-4.61-5.28-4.63,0-1.6-3-.91-1.44-2.31.93C84.18,41.27,89.09,43.06,89.3,41Z"/><path d="M96.05,137.79c7.58,2.67-3.25-6.67-2.77-5.29s2.19,6.33,2,7.5C96.55,133.63,95,137,96.05,137.79Zm.31-2.87C100.48,134.8,95.77,140,96.36,134.92Z"/><path d="M92.73,127.89q2,4.68,3.38.06c-1.11,5.86-3.78-5.59-3.38-5.84Z"/><path d="M83.26,52.46c.89-7.45,5.09-3.14-1.69-7.45,3.71,2.36,6.3,3.09-.47,4.29C83.7,49.05,84.43,50.1,83.26,52.46Z"/><path d="M98,128.48c-1.59-.81.1,2.86.1.2Z"/><path d="M98.07,126.4C96.17,124.72,97.81,129.49,98.07,126.4Z"/><path d="M97,115.12c-10.41,1.74.61,4.1,1.4,4.95a24.56,24.56,0,0,0-4.42-2.68c7.67-1.55-2-3,4.29-7.71C97.82,110,87.34,116.85,97,115.12Z"/><path d="M92.73,108.58c.26-2.87,1.61-4.69,5.84-3.66C96.63,98.51,92.73,107.23,92.73,108.58Z"/><path d="M80,112.74c2.08-4.8,7.95-1.34,6.8-.39.27-.23-.39-9.34-.86-9.61,1.14,2.48-2.67,2.2-5.34,2.94C87.54,104.13,79.79,110.55,80,112.74Z"/><path d="M80.64,113.83c-.16,1-.46,12.47,4.23,7.23C83.93,124.73,80.07,114,80.64,113.83Z"/><path d="M78.13,46.32C80,46.73,77.78,44.92,78.13,46.32Z"/><path d="M73.59,35.53c4.66-1.14-5.35.9,2.12,1-5.9.46.76,1.45,1.21-.3C76.39,36.12,72.64,36.45,73.59,35.53Z"/><path d="M73,73.44c-3.57,1.94,2.9-.17,4.23,1.19C74.57,71.2,72,73.28,73,73.44Z"/><path d="M87.69,73.54c-2.58,1.15-7.55-6.53-6.34-2.87C84.23,70.9,84.47,78,87.69,73.54Z"/><path d="M87,79.08C84.55,78.45,87.42,82.12,87,79.08Z"/><path d="M81.45,64.14c-.5-.75-.16,6.13,2.42,4.58.89.1,2.69-9.28,3.33-1.6q1.08-3-2.43-4.39C85.05,63.14,83.1,70.91,81.45,64.14Z"/><path d="M87.09,77.11C85,75.52,86.72,80.11,87.09,77.11Z"/><path d="M85.78,70.77C88.25,70.38,84.4,68.19,85.78,70.77Z"/><path d="M84.87,77.4c-4.34-4.94-4.68,4.21-4.23,7.23C80.13,80.89,85.25,81.73,84.87,77.4Zm-.8,1.78c-4.22,4.56-2-6.25.1-.69Z"/><path d="M83,37.51c4-1,5.77-4.53-.1-2.77C88.06,34.59,83.73,36.72,83,37.51Z"/><path d="M80.64,92.75c-.16,1-.46,12.47,4.23,7.22C83.93,103.65,80.07,92.89,80.64,92.75Z"/><path d="M59,89.58C61,89.43,58.1,86.78,59,89.58Z"/><path d="M56.87,48.3c-2.53-.95-1.67,6.79-.5,2.18C57.16,50,56.9,49.06,56.87,48.3Z"/><path d="M56.77,53.35C55.06,55,58.42,55.16,56.77,53.35Z"/><path d="M54.46,53.74c-3.54-1.49,2.73,7.81,3.72,3.67C54.85,58.45,56.79,54.81,54.46,53.74Z"/><path d="M52.85,125.12q1.49,5,3.73.38C58.08,118.47,49.51,124.94,52.85,125.12Zm.5-.6c3.36-2.67,2.76,4.58,1.21.7C54.28,128.74,53,126.05,53.35,124.52Z"/><path d="M63.72,61.37C61.33,61.87,65,64.3,63.72,61.37Z"/><path d="M57.48,48.6C59.64,51.85,57.79,52,57.48,48.6Z"/><path d="M61.61,62.06c2.81,7.37,4.2-4.39,3.82-5.58C67.85,59.58,60.37,65.25,61.61,62.06Z"/><path d="M55.36,14.15c3.74-.74,4.25-.21,1.88-1.59,4.47-.7-2.93,0,1.95-1.94-2.24.25-5.09.92-7.65-.33,2.89,2.51.76,1.19.56,2.37C51.83,12.69,53.45,13.14,55.36,14.15Zm0-3.07C58.23,12.3,52.53,11.9,55.36,11.08Zm0,1.58C58.26,13.81,52.5,13.43,55.36,12.66Z"/><path d="M57.18,26.82a5,5,0,0,0-5-.24c-.43,1.17,8.58.62.15,3.2C50,30.48,61.56,27.71,57.18,26.82Z"/><path d="M56.77,17.22C56.25,20.24,59.79,16.54,56.77,17.22Zm1,.39C56.53,19.4,56.69,15.91,57.78,17.61Z"/><path d="M58.38,15.83q-2.52-2.64-4.89-.25C53.78,14.47,58.64,19.55,58.38,15.83Zm-3.12.2C51.92,16.19,56,13.06,55.26,16Z"/><path d="M58.28,131.06c-3.58-5.55-3.47,7.33,0,2.07C56.35,134.12,56.59,130.1,58.28,131.06Z"/><path d="M48.82,69.88c.62-6.86-3.59-3.83-4.74-.79C45.55,69.66,48,63.07,48.82,69.88Z"/><path d="M47.1,67.4C45.15,67.67,48.05,69.55,47.1,67.4Z"/><path d="M51.64,134.92q4.68,2,3.87-2c-.33-.83-2.72-.56-3,1.11C51.58,133.72,51.69,134.31,51.64,134.92Z"/><path d="M55.36,40c-2.44,1.62-3.12,3.65-2,6.07-1.84-.46,5.41-9.48,4.6.39C58.81,43.62,58,41.47,55.36,40Z"/><path d="M46.7,59.88c-3.63,2.9-3.15,3.59-.6,2C46.58,67.74,46.7,60.66,46.7,59.88Z"/><path d="M47.41,40c5-1.19-3.25-1.18-.51,3.67C47.2,48.78,47.6,41.87,47.41,40Z"/><path d="M46,35.92c3.71,3.14,3.12-7.75,2.11-6.07C49.31,33.39,43.42,31.47,46,35.92Zm.2-2.17C50.06,30.41,46.6,39.28,46.2,33.75Z"/><path d="M43.48,27.81c4.13.56,6,.13,5.34-4.06C49.11,30.54,44.38,19.59,43.48,27.81Z"/><path d="M46.3,30.08C44.34,30.35,47.25,32.23,46.3,30.08Z"/><path d="M57.28,106.9c-3.13,1.1-3.82-2.18-2.72,3-.25,0-5.38-4-1.85,3.47-1.1-2.32,5.52-4.35,6-5.65C58.13,107.56,57.06,108.14,57.28,106.9Zm-.2,2.48C54.21,110.32,57.62,104.65,57.08,109.38Z"/><path d="M51.64,61.17c1.56,3.56-.6,6.87,0,.49Z"/><path d="M53.55,94.33c-3.95,3.19,3-2.55,4,1.39-1.23-2.4-2.83-2.27-.2-3.67-1.74-1.46-7.07.57-2.82.79A2.15,2.15,0,0,1,53.55,94.33Z"/><path d="M52.24,68.69c3.48.38,1.8,5.84,2.42-.79C53.9,68.22,51.71,67.12,52.24,68.69Z"/><path d="M57.68,61.17c1.56,3.56-.6,6.87,0,.49Z"/><path d="M57.48,72c2.6-4.31-4.87-4.54-.61-3.27C57.2,69.45,56.18,72.27,57.48,72Z"/><path d="M55.87,65.82q-5.17,2,.42.29c1.36-.89-1.32-5.81-2.54-5.44C49.13,67.79,58,61.05,55.87,65.82Z"/><path d="M58.08,91.16c1-3.67,0-6.47-3.12-8.37a8.06,8.06,0,0,0-1.85,7.78c-.79.3,1.79-11,3.85-6.48A35.19,35.19,0,0,0,58.08,91.16Z"/><path d="M61.61,50.08c2.79-1.47,5.94,7.2,5.57,3.17C64.11,53.08,65.18,45.41,61.61,50.08Z"/><path d="M52.85,116.9q3.85-.83,3.3,3.15c-.2-3.43,2.05-3.23,1.71-.28C61,113,53.2,117,52.85,116.9Z"/><path d="M65.23,32.06c5-7.43-9-3.78-1.71.2C64.1,28.59,65.52,24.84,65.23,32.06Zm-1.41-1.48c-2.81,3.16-1-6.4-.1-1Z"/><path d="M75.41,85.62c3.44-3.4-4.78-2.2-2-2C73.84,83.75,73.9,84.37,75.41,85.62Z"/><path d="M71.58,71.26c1.16-1,6-5.27.2-3.46C71.48,68.87,71.89,70.36,71.58,71.26Zm.7-3.06C75.34,65.28,73.29,71.6,72.28,68.2Z"/><path d="M75.91,17.71C77.81,18.12,75.57,16.31,75.91,17.71Z"/><path d="M75.91,11.87C77.81,12.28,75.57,10.47,75.91,11.87Z"/><path d="M76.31,82.05c1.66-.53-2.12-6.57-3.72-2.67-2,3.34,3.81,2.18,1.1,1.59C75,81.39,72.54,79.05,76.31,82.05Z"/><path d="M77.72,32.76C75.48,30.27,76.94,35.85,77.72,32.76Z"/><path d="M77.22,45.82c-2,1-6.82.27-4.14,1.48C75.4,49.89,74.92,45.18,77.22,45.82Z"/><path d="M71.68,63.94q4,3.47,3.83-.3C74.43,64.2,75.4,63.46,71.68,63.94Z"/><path d="M72.28,11.67c2.31-.54,4.09-.23-.2-1C70.43,12.77,72.66,18.07,72.28,11.67Z"/><path d="M64.93,46.91C62.54,47.42,66.25,49.84,64.93,46.91Z"/><path d="M74.5,48.69C72.57,48.91,75.43,49.91,74.5,48.69Z"/><path d="M71.58,54.14c1.16-1,6-5.27.2-3.47C71.48,51.74,71.89,53.23,71.58,54.14Zm.7-3.07C75.34,48.15,73.29,54.47,72.28,51.07Z"/><path d="M75,43c-2.42-1-3.07,2.6-2.31.7C74.81,41.64,74.43,47.13,75,43Z"/><path d="M74.5,44.83C72.57,45.05,75.43,46.05,74.5,44.83Z"/><path d="M67.35,101.85c2.85-4.24-4.28-3.66-5.74-2.61C62.13,99.16,68.75,101.28,67.35,101.85Z"/><path d="M66,119.37c1.4-6.74-3.51,1.84-.91,1.33C65.13,119.64,64.8,119.36,66,119.37ZM65.23,118C66.26,115.68,66.09,120,65.23,118Z"/><path d="M62.72,112.94c-1.71,4.53,3.09-3.81,2,2.67a5.19,5.19,0,0,0,.46-5.47C65.68,111.08,63.43,111.93,62.72,112.94Zm.1.5C63.8,115.21,61.37,114.17,62.82,113.44Z"/><path d="M63.72,90q-4.77,3.9,2.43,3.17c-.53.1-7.46-7.25-1.36-11.38q3.21-1,2.36,3.76c1.34-2,.72-6.41-2.43-5.8.45-6.6-3.63,3.47-2.69,5.35a7.09,7.09,0,0,0,1.14-3.69C62.93,81.05,63.73,90.22,63.72,90Z"/><path d="M62.41,40.58c-1.84,1.91,5.81-3.61,3.13-6.34C65.58,36.5,57.1,35.37,62.41,40.58Z"/><path d="M65.43,43.05c-4-.66-2.44,4.81-1.71.5,1.73.64,1.74,5.32,1.92-.5Z"/><path d="M74.8,13.85C73.34,12.92,74.25,15.25,74.8,13.85Z"/><path d="M63.42,136.18c-6.25,5.72,8.58-2.56-.7-3.56C57.87,130.82,68.59,136.22,63.42,136.18Z"/><path d="M72.28,17.51c2.29-.54,4.1-.25-.2-.89C70.34,19.48,73,22.52,72.28,17.51Z"/><path d="M74.7,15.24C72.8,14.83,75,16.63,74.7,15.24Z"/><path d="M72.38,25.63c10.27,1.43-1-9.18-.1-2.18C72.38,24.1,70.64,26,72.38,25.63Zm0-3.76c6.17-1.76,3,5.25.17,2.24A2,2,0,0,0,72.38,21.87Z"/><path d="M72.18,31.27c5,2.1,7-5.25,1.72-4.95C70,25.56,72.47,29.85,72.18,31.27ZM73,26.82c6.42-.84,1.24,4.21-.52.71C72.54,27.23,71.72,26.36,73,26.82Zm-.2,2.27C76.14,28.4,75.71,30.66,72.79,29.09Z"/><path d="M126.07,98.29c4.14-3.78,2,1-1.61-3.17C125.49,96.11,127.14,97.22,126.07,98.29Zm.9-1.19C129.34,95.44,128.3,100.54,127,97.1Z"/><path d="M128.58,26.42c.39,1.38-6.39-2.28-5.67.29C125.26,35.06,128.92,26.3,128.58,26.42Zm-2.61,3C119,26.73,129.75,28.8,126,29.39Zm1.71-.69C121.34,27.1,125,25.79,127.68,28.7Z"/><path d="M123.45,36.22c5.45,2.38,4.25-1.9,1.21-1.38C123.72,34.11,123,35.48,123.45,36.22Zm.4-1C127.77,34.6,126.22,38.28,123.85,35.23Z"/><path d="M124.76,66q6.57.49.8-1-4.11,4.17,1.72,5.15c3.68-2.05-1.87.44-2.62-1.39C130.55,65.22,123.09,69.54,124.76,66Z"/><path d="M128.69,60.57c-2.71-2.77-5.64.19-.41.1-6,1,4.25,3.27-3.42,2.58C128.51,66.64,128.24,62.29,128.69,60.57Z"/><path d="M123.55,32C126.11,31.72,123,34.06,123.55,32Z"/><path d="M124.86,33.25c.6-.18,5.88,1.45,2.62-1.09C128.47,31.79,126.1,31.5,124.86,33.25Z"/><path d="M128.69,76.51c-2.63-1.64-6.76.54-4.51,2.75C125.49,77.62,122.66,75.64,128.69,76.51Z"/><path d="M112.27,49.68c1.29,2.18,8.54-1,2.92-.29C115.27,49.5,114,45,112.27,49.68Z"/><path d="M116.1,92.15C118.49,91.65,114.78,89.22,116.1,92.15Z"/><path d="M119,101.26C121.93,98.7,117.13,99.14,119,101.26Z"/><path d="M114.18,95.12C115.84,97.72,116.3,91.57,114.18,95.12Z"/><path d="M115.59,39.29c3.38-.52,6.1-1.45,1.41-2.57C113.26,37.4,110.62,37.3,115.59,39.29Z"/><path d="M117.91,97.4C116.57,94.51,115.58,101.06,117.91,97.4Z"/><path d="M114.18,35.83c1.93,1.19,3-3.95,3.33-4-3.52.87-1.37-3.64-3.33-.2C118.75,33.76,111.55,33.23,114.18,35.83Z"/><path d="M107.74,21.17c1-9-4,2.57-4.89,2.69C98.68,24.42,110.57,14.79,107.74,21.17Z"/><path d="M108.94,52.36c-1.35-.7-3.07-9.87-5.48-6.19-2.3,3.5,4.14,7.35-.76,9.16C103.05,56.49,110,57.91,108.94,52.36Zm-5.23-3.57C102.9,42.54,111.64,50,103.71,48.79Zm4.53,5.45C107.29,55.5,104.57,51,108.24,54.24Z"/><path d="M102.8,96.41c2.17.43,5.36,7.2,5.68,3.07C106,101.41,104.54,91,102.8,96.41Z"/><path d="M106.12,93.24C103.73,93.75,107.44,96.17,106.12,93.24Z"/><path d="M103.2,7c1.6,2,3.43,2.4,5.49,1.19A5.89,5.89,0,0,1,103,5.12c.12-5.38,7.43-3.07,4.45-.17C112,.6,101.08-2.3,103.2,7Z"/><path d="M96,77.8c.85-4.06.49-11-.67-4.36C91.51,74,98,74.09,96,77.8Z"/><path d="M108.34,27c-9-6-5,15.06.68,5A6.1,6.1,0,0,0,108.34,27Zm-2.72,6.63c-5.59-3.45,1.9-9.9,0-1.62Zm2.32-1.09c-2,1.89-2.55-5.21-.66-5.4C111.12,26.78,107.73,31.81,107.94,32.56Z"/><path d="M105,104.53C109.8,103.84,104.55,107.69,105,104.53Z"/><path d="M108.94,108.58c2.39-8.73-9-7.15-5.94.7C104.08,106.6,108.57,109.54,108.94,108.58Zm-.6-1.78c-5.43,3.59-6.13-5.89-.5-2.47A4.68,4.68,0,0,1,108.34,106.8Z"/><path d="M102.8,72.25c-.35,5.49.06,2.88,3.12,1.92C103.59,74,103.58,74,102.8,72.25Z"/><path d="M102.8,78.89c10.9,3.28,4.35-13.76.4-7.94.28-.41,7.52,2.28,3.73,6.47C106.25,78.17,102.66,73.38,102.8,78.89ZM104.71,77C105.75,77.76,103.09,76.56,104.71,77Z"/><path d="M103.61,66.81c-2.93,2.82,16-10.76-.67-9C102.29,56.47,103.78,66.82,103.61,66.81Zm1.21-7.42c4.51-2.91,4.65,4.7,0,3Zm0,4.25c4.54-1.67,4.59,5.83,0,3Z"/><path d="M123.05,62.75C127,62.68,122.49,61.22,123.05,62.75Z"/><path d="M123.05,61.27C126,63.14,122.32,58.92,123.05,61.27Z"/><path d="M123.35,57.21c1.43,2.2,3.58,3.6.7.29C124.23,56.69,123.11,55.76,123.35,57.21Z"/><path d="M123.05,43C127,42.89,122.49,41.42,123.05,43Z"/><path d="M128.48,41.57C121.27,38,128.2,49.1,128.48,41.57Zm-.6,1.78C121.46,44.51,128.9,38.69,127.88,43.35Z"/><path d="M123.25,73.44C126.39,73.1,121,71.45,123.25,73.44Z"/><path d="M126.07,85.52c6.79-2.29-.44-5.33-1.95-4.17C118.48,85.66,126.11,84.73,126.07,85.52Zm-1.92-3.47C133.13,78,124.26,90.83,124.15,82.05Z"/><path d="M122.84,46c1.29.93-.44,3.18,0,.21Z"/><path d="M127.78,51.47c-4.09-4.19-.42,4.08-2.72,3.56,4.29,2.59.41-.8,2.82-1.19C127.79,54.5,125.45,49.31,127.78,51.47Z"/><path d="M123.35,45c-2.38,4.41,3.7,3.51,5.08.21C126.1,50.79,125,44.42,123.35,45Z"/><path d="M124.86,91.16c2.43,1.42,5.88-2.59.13-2.82C125.67,90.13,128.21,90.13,124.86,91.16Z"/><path d="M120,86.81c-4-7.11-5.77,3.42-.9,3.88C119.69,97.83,120.37,88.2,120,86.81Zm-.9,1.78c-1.46,0-4.45-6.1-.1,0Z"/><path d="M114.38,65.33c-2.66-.75-.09,5-.7,1.08q3.61,2.61,4.93-1.9c.09-.4-9.62-7-1.71-5.22q3.38-2.15-3.42-1.09-2,6,4.33,5.15Q118.23,68.45,114.38,65.33Z"/><path d="M112.67,75.32a22.83,22.83,0,0,0,6.9-.36,8.77,8.77,0,0,0-5-1,21.77,21.77,0,0,1,.33-3.78,7.36,7.36,0,0,0,5.23-.46,12,12,0,0,0-6.57-.42C114.73,68.81,113.07,76,112.67,75.32Z"/><path d="M119.12,102.05a24.07,24.07,0,0,1-2.25,5.3,6.64,6.64,0,0,0-.46-4.89,6,6,0,0,0-.52,5,39.93,39.93,0,0,1-2.3-4.86c.87,1.57,1.06,5.54,2.15,7.44C116.31,111,121,102.61,119.12,102.05Z"/><path d="M124,85.82C126.63,85.9,121.4,85.71,124,85.82Z"/><path d="M123.35,20.88c4.52,0,6.7.1,1.91-1.69C133.44,18.09,122.06,18.11,123.35,20.88Z"/><path d="M123.05,24.24C127,24.18,122.49,22.71,123.05,24.24Z"/><path d="M123.05,22.76C125.93,24.7,122.26,20.17,123.05,22.76Z"/><path d="M124.35,14.94C122,15.69,124,17.16,124.35,14.94Z"/><path d="M123.35,17.22C127.43,17.09,122.74,15.76,123.35,17.22Z"/><path d="M122.24,18.8C124.8,18.55,121.7,20.89,122.24,18.8Z"/><path d="M127.07,21.87c-6-.34,6,2.39-2.11,2.47C125.4,26.89,132.05,23.3,127.07,21.87Z"/><path d="M122.64,46.52C121.05,47.57,122.6,48.48,122.64,46.52Z"/><path d="M114,124.92a36.53,36.53,0,0,0,5.77-1c-2.64,2.61-5.25-2.6-4.06-4.79-.79,1.45-3.23,16,4.33,8.29C118.17,128.16,111.9,128.05,114,124.92Z"/><path d="M124.56,14.74c10.81,2.75-7.38-3.58,3.56-3.24C128,11.49,118.65,10.07,124.56,14.74Z"/><path d="M137.25,98.49c-4.23-6.92.45.82-4.18.11,2.79.42,6.28,4.8,1.5,4q4.31.43,3.65-3.87C142.67,99,137.4,96.39,137.25,98.49Z"/><path d="M131.1,135.51a21.63,21.63,0,0,0,7.94,0C139.46,133.53,131.4,135.5,131.1,135.51Z"/><path d="M137.25,89.18c-4.23-6.92.45.82-4.18.11,2.79.43,6.28,4.8,1.5,4,2.87.29,4.09-1,3.65-3.88C142.67,89.67,137.4,87.09,137.25,89.18Z"/><path d="M134.93,71c-1.34,3.83-3.6-2.65-2.92,2.79C132.94,77.8,136.56,74,134.93,71Zm-.6,3.56C129.4,75.21,135.14,70.88,134.33,74.53Z"/><path d="M134.93,59.48c-1.34,3.59-3.63-2.57-2.92,2.79C133.44,65.53,136.28,62.51,134.93,59.48Zm-.6,3.27C129.4,63.4,135.08,59.33,134.33,62.75Z"/><path d="M136.14,46.22c0-.07-5.89-4.83-3.18-6.81C131.1,40.77,133.16,49.35,136.14,46.22Z"/><path d="M132.61,25.13c-1.41,3.52,2,12.05,4,4.95C133.23,36,133.22,24.86,132.61,25.13Z"/><path d="M135.74,117.89C138.14,117.44,134.35,115.91,135.74,117.89Z"/><path d="M136.14,105.12c-4.47-3.51-4,8.26-2.62,6.67C131.92,107.63,139.43,110.53,136.14,105.12Zm-.3,2.28C130.05,112.05,135.19,100.49,135.84,107.4Z"/><path d="M135.74,122.94C138.14,122.48,134.35,121,135.74,122.94Z"/><path d="M131.1,137.59c-.12,0,8.33-.23,7.83-.42-.09,0-8.26-.71-7.83.42Z"/><path d="M136.54,34c-3.28,2.3,3.4,5.8.4,1.39C136.08,35.75,136.73,34.41,136.54,34Zm.4,2.18C138.49,37.78,135.34,36.85,136.94,36.22Z"/><path d="M135.74,27C138.14,26.56,134.35,25,135.74,27Z"/><path d="M87.79,58.2c-2.43-1.29-4-2.87-5.51-3q1.81,3.42-1.09,5.35c2.24.46,3.23-.39,3-2.57C81.36,64.76,91.09,57.41,87.79,58.2Zm-.7,1C83.6,62.44,85.59,53.19,87.09,59.19Z"/><path d="M89.61,2.37C87.13,1.82,90.41,5.35,89.61,2.37Z"/><path d="M79.64,61.76C75.88,59.34,78.54,65.61,79.64,61.76Zm-.31.6C76.49,63.74,78.59,60,79.33,62.36Z"/><path d="M93,100.76C98.31,95.23,87.86,95.45,93,100.76Zm-.5-3.26c2.24-1.1.23,4.65-.3,1Z"/><path d="M133.42,124.72a6.42,6.42,0,0,0-.3,6.12,6.08,6.08,0,0,1,2.85-6.4,13.16,13.16,0,0,1,3.19,6.91C139.6,127.82,138.75,120.4,133.42,124.72Z"/><path d="M93.94,79.68c4.38,1.13,1,1.38,5.29,0C102.34,78.6,93,77.73,93.94,79.68Z"/><path d="M70.87,133.33C68.19,128.44,68.31,138.13,70.87,133.33Zm-.6.3C68.15,135.22,69.9,130.62,70.27,133.63Z"/><path d="M69.16,89.08c1.67,1.26,5.36-2.9,6.47-1.4C73.7,85.08,68.34,88.68,69.16,89.08Zm.4-1.88C71,87.94,68.2,87.81,69.56,87.2Z"/><path d="M75,129.08a13.23,13.23,0,0,0-2.49,8.61C79.7,138.29,78,134.05,75,129.08Zm-2.31,7.62c1.34-4,2.69-7.32,4-1.42C78.81,137.92,74,136.21,72.69,136.7Z"/><path d="M122.54,127.79a40,40,0,0,0,.17,6.66c-.46-1.6,6.88.5,6.48.45a8.35,8.35,0,0,0,.45-6.37c1.18,1.88-7.71-.61-7.1-.74Zm5.94,2.87c1.33,4.34-8.61.34-2.83,0Z"/><path d="M123.85,122.15q1.65,2.71-1.1,4.83a17.84,17.84,0,0,1,6.62-3.55C129.36,122.47,117.9,118.07,123.85,122.15Z"/><path d="M139,63.05c-1.84-4.93-2.88-3.24-3.33.49C137.74,57.8,137.1,65.75,139,63.05Z"/><path d="M135.94,120.27c-2.88.41-2.35-7.64-2.62-4.85-2,5.33,5.43,8,5.64-1q1.18,4.62-3,5.82Z"/><path d="M138,107.4C140.35,106.94,136.57,105.41,138,107.4Z"/><path d="M129.09,12.86C131.43,13.75,129.65,11.24,129.09,12.86Z"/><path d="M132,17.81l1.79-5.3c6.72-1.09-3.06,10.09,2.4.17a6.13,6.13,0,0,1,2.45,6.75c-.68-.19,2.41-11.19-4.62-8.71Q129.78,13.29,132,17.81Z"/><path d="M69.26,33.94c2.2.34,8,.2,5.74-1.78C73.92,35.73,65.9,30.46,69.26,33.94Z"/><path d="M102.5,15.93c9.29,2.36-3.75-2.62,4.63-4.7-3.29.82-2.33-1.56-4.79,3.22C106.31,6.76,95.81,18.88,102.5,15.93Z"/><path d="M111,99.77C109,97.75,110.44,103.25,111,99.77Z"/><path d="M135.74,72.65c-1.2,4.35,5.86,2.12.7,1.32,3.42,0,2.05-5-.7-2.21C138.65,71.22,138.87,73.17,135.74,72.65Z"/><path d="M1.38,111.36c-2.43,4.93,7.62,2.93,4-1C5.35,118.17,4.2,107.94,1.38,111.36ZM2,112c2-2.88,1.17,4.38,0,.27Z"/><path d="M7.72,132.74c.88-4.05-2.08-4.28-.1-1.19-1.85.77-10.88.08-6.38,6,2.3,3,.63-5.57,1.86-3.84L3.7,139a21.63,21.63,0,0,1,1.19-5.91,16.65,16.65,0,0,1,.92,5.28A11.07,11.07,0,0,1,7,132.54a7.13,7.13,0,0,0,.5,6.94C11.22,137.86,7.83,134.41,7.72,132.74Zm.1,4c-2.08,4.84-.42-7.73.11-1Z"/><path d="M43.88,4.25c4,1.45,5.63.69,2.82-1.59C46.36-1.77,42,1.37,43.88,4.25Zm.3-2.18C47.79-.45,44.85,7.43,44.18,2.07Z"/><path d="M8.13,131"/><path d="M4.3,45.72c7.87,4.11-4.9,3-2-.57-5.6,6.79,5.4-2.88,2.8.57-.48-1.62,6.67-6.61-2.36-5a2.86,2.86,0,0,1,2.94,1.68C-1.09,43.26,4.36,41.92,4.3,45.72Z"/><path d="M18.3,117q1.64-7.08-5-6.89c-5.62,2.56.32,15.11.58,17.76C13.38,122.66,18.38,122.68,18.3,117Zm-2.52,5.15c-3.07,2.07-6.89-10.29-.8-11.88,6.15,2.3.26,7,1.67,8.21a5.44,5.44,0,0,0-2-6.29c-2.12,1-.6,6.69-1.1,8.38,2.7-9.15,3.41-4.31,1.41-3.08C17.63,117.1,16.31,121.33,15.78,122.15Z"/><path d="M11.35,94.82c1.61,7.77,2.1-1.76,3.42-.59,1,.69-.59,8.81-3.42,7.43C23.32,103.19,13.19,92.08,11.35,94.82Z"/><path d="M1.28,119.18c5.5,2.6,4.64-7.33,3.83-1C3.91,116.75.74,112.77,1.28,119.18ZM2,116.9c2-2.88,1.17,4.38,0,.27Z"/><path d="M8.23,83.94c.75-5.15-6.3-4.4-6.57-2.56q4-2.5,5.84,2.38-4-2.12-6.26,2Q3.31,91,7.42,86.81C7.57,87.74-6.2,102.66,6.2,101,4,101.33.12,93.1,7.87,96.41Q5,95.2,2.13,94.12C3.87,95.83,8.23,84,8.23,83.94ZM6.31,86.61C-2.85,90.33,4.94,79.44,6.31,86.61Z"/><path d="M7.72,73.34C3.94,59.58,4.34,85.23,4.51,78c.23-9.09-2.08,0-2,0q-2.33-2.46.66-4.79a15.25,15.25,0,0,1,2.58,5.48,7.88,7.88,0,0,1,1-5.22,7.51,7.51,0,0,1,0,6.24C9,78.85,8.24,75.07,7.72,73.34ZM5.41,75c-3.53-2.14.44-7.46-.1-2.28C5.59,73.62,6,74,5.41,75Z"/><path d="M7,60.77C.26,56.53-.25,68.85,3.87,69.64c7.07,1.36.82-6.27,2-7.68-4.09-1.85-3.28,4.51-2.26,5.64-1-6.42,3.12-.62,3.13-.39-7.56,6.1-3.79-14.46,1.51-3.67A3.89,3.89,0,0,0,7,60.77Z"/><path d="M23.33,93.44l-.09-6.52C23.3,87.25,20.75,92.87,23.33,93.44Z"/><path d="M42.27,87.3c4.86-1.67,4.21,4.11,5.54,0C48.35,86.13,41.76,86.24,42.27,87.3Z"/><path d="M36.83,5.44c-4.31,1.16-2.58-5.5,0-4.72C31.08-1.5,34.47,2.69,32,6,31.84,6.14,37.4,7.12,36.83,5.44Z"/><path d="M26.36,139c2.19-4.5,1.71-5.71-.21-2.41C24,131.34,24.8,136.49,26.36,139Z"/><path d="M14.67,72.06q-4.42-3.84-2,1.86,6-.75,3.92-6.87-5.22-4.81-4.47,1.74c3.06-2.22,1.53-1.9-.21-1.29C15.87,58.55,17.54,77.24,14.67,72.06ZM14,73C10.29,76.73,12.89,65.34,14,73Z"/><path d="M32.1,13.65c-.19.79,11.25-6.23.9-6.24A5.6,5.6,0,0,0,32.1,13.65Zm2.41-2.87c-.15-5.67,3.6,1.77-.3,1.19C34.43,11.7,33.8,10.56,34.51,10.78Zm-2.21-1C32.76,8.7,34.44,12.44,32.3,9.79Z"/><path d="M48.62,103c1.69,3-.23,3.8-2.45-.58,2,3.91-3.23,4.76-2.38.77C42.58,108.92,49.9,109.78,48.62,103Z"/><path d="M43.38,79.58c4.37,3.75-4.68,2.78,4.37,2.46-2.1.08-1.32-3.22-.66-4.07C46.05,79.3,43.12,83.19,43.38,79.58Z"/><path d="M48.51,119.08c.29-2.71-1-3.82-3.85-3.35-1.29.21-.87,5.18-.58,5.62C42.76,124.41,48.91,125.17,48.51,119.08Zm-.4,2c-.67,5.19-6.45-1.88-.8-.89A1.56,1.56,0,0,1,48.11,121.06Zm-.2-2.28c-4,2.94-4-4.86.2-1.58A1.74,1.74,0,0,1,47.91,118.78Z"/><path d="M48.82,11.87c-4.67-2.6-2.3-1.59,0-3.07-6.9,1.48-.5-2.71-.94-2.64C39.17,10.17,48.64,11.22,48.82,11.87Z"/><path d="M45,15.24c-5.21-1.45.92,4-2.52,5.24C46.11,24,44.75,17.39,45,15.24Zm-.5,5.24C42.54,19,43.82,14.79,44.49,20.48Z"/><path d="M44.28,136.5c3.19,1.64,1.53,2.74,2-2.87C48.43,137.6,43.83,134.05,44.28,136.5Z"/><path d="M46.3,95.12C44.34,95.39,47.25,97.27,46.3,95.12Z"/><path d="M43.48,101.16c6.36,3.14,5.7-8.53,2-2.28C46.63,101.71,42.86,99,43.48,101.16Zm2.62-2.28C48.86,94.66,47.43,103.55,46.1,98.88Z"/><path d="M44.49,128.48c1.71-3.38.32-1,1.55-.55-.67-6.31-.95,1.65-2.12-3.11-.85,4.34.27,3.11.32,1.44Z"/><path d="M47.31,132.14c-4.16-.25-5.76-.09-3.23,2.48C44.24,133.77,47.42,132.51,47.31,132.14Z"/><path d="M42.27,130.36c4.35-.65,7.17,1.16,1.17.79C42.67,131,41.88,131.65,42.27,130.36Z"/><path d="M47.61,89.88c-3.75-2.56-2.15,1.14-1.71,4.25C46.15,93.91,47.13,90.62,47.61,89.88Z"/><path d="M12.05,129.08c.42-.61-.47-9.74-.8-5.16C11.56,125.5,10.53,128.13,12.05,129.08Z"/><path d="M38.34,89q2-7.78-5.25-7.48C25.83,85,37,92.65,31.47,95q3.38,3,7,.16C31.79,91.39,39.59,93.31,38.34,89Zm-6-3.26c1.07-11.29,10,5.78,2.72,2.47C32.15,89.78,32.09,89,32.3,85.72Zm3.93,8.81C36.19,94.46,31.73,94.23,36.23,94.53Zm.7-3.86C34.2,94.14,30.73,89,36.93,90.67Z"/><path d="M38.34,103.24c-.87-1-8.14-2.29-7.05,1.29C30,111.19,40.91,110.22,38.34,103.24Zm-3.83.89c1,6.75-4.69,1-1.08-.69C34,103.61,34.94,103,34.51,104.13Zm3.13,1.09c-.4,7.33-5-3,0-1.39Z"/><path d="M31.69,60.08c1.79-.48-.78-2.91-.1-.2Z"/><path d="M36,123.11c-9.38,2.83.65,23.79,3.4,9.31C39.29,129.4,40,124,36,123.11Zm1.92,11.09c-3.07,6.76-4.6-2.23-3.07-3.6C39.33,126.62,37.63,134.12,37.94,134.2Zm-.61-4.56c-5,2.34-4.55-2.57-1.31-5.54C38.17,123.4,39.4,133.1,37.33,129.64Z"/><path d="M42.47,101.26C43.46,99.17,40.52,100.9,42.47,101.26Z"/><path d="M37.74,16c-8.12-3,2.87,1.41-1,4.72q-4.14,1-2.63-3.73-5,3.35,1.61,5.44Q40,20.33,37.74,16ZM32.8,19.39C30.51,20.06,33.19,16.38,32.8,19.39Zm.61-.59C34.68,16,34.45,21.52,33.41,18.8Z"/><path d="M42.27,64.24C45.59,62,39.24,61.59,42.27,64.24Z"/><path d="M37,29.29a6.37,6.37,0,0,1-.45-5.09C36.41,26.33,27,25.25,33,29.29,34.49,24.92,36.25,27.94,37,29.29Zm-3.42-2.08C31.23,32.06,32.16,22.37,33.61,27.21Z"/><path d="M32.7,55.23c2.41,1.79,4.58,6.94.4,8.86C42.87,59.6,33.55,58,32.7,55.23Z"/><path d="M37.13,38.5c.94-1,.52-9.51-1.21-7.33-.73-2-1.77.9-3-1.09.21-.71.67,9.79-1.55,9.8C34.46,39.73,37.05,41.51,37.13,38.5Zm-3.22,1C32.14,39.66,34.31,36.87,33.91,39.49Zm0-2.08C32.14,37.58,34.31,34.79,33.91,37.41Zm0-2.08C32.14,35.5,34.31,32.71,33.91,35.33Zm0-2.08C32.14,33.42,34.31,30.64,33.91,33.25Zm1.31,6.24C33.45,39.66,35.62,36.87,35.22,39.49Zm0-2.08C33.45,37.58,35.62,34.79,35.22,37.41Zm0-2.08C33.45,35.5,35.62,32.71,35.22,35.33Zm0-2.08C33.45,33.42,35.62,30.64,35.22,33.25Zm1.31,6.24C34.75,39.66,36.93,36.87,36.53,39.49Zm0-2.08C34.75,37.58,36.93,34.79,36.53,37.41Zm0-2.08C34.75,35.5,36.93,32.71,36.53,35.33Zm0-2.08C34.75,33.42,36.93,30.64,36.53,33.25Z"/><path d="M29.38,11.18"/><path d="M26.26,20.18c.61,0,2.82,5,1.91,1,.08-.28-2.29-10-1.11-2.67-7.8.74-1.58-7.43,1.81-4.75.3-1.54-8.58-5.14-5.54,9a6.64,6.64,0,0,1,4-1.09C26.43,21.69,26,22.09,26.26,20.18Z"/><path d="M28.77.39C26.29,4.18,20,2.08,22.53,9c8.49,2.53,5-6.14,3.95-1.93.81-3.37,2.56,5.75-.73.54C22.68,12.67,27.93-2.58,28.77.39Z"/><path d="M29.38,1"/><path d="M59.49,57.5C57.27,57.21,60.1,60.29,59.49,57.5Z"/><path d="M59.49,23.75c2-1.19-7.64-7.37-6.54-1.76-1.57,4.15,5.94,1.6,1.71.87,3,.81-6.77-1,1.08-3C58,19.27,58,26.6,59.49,23.75Z"/><path d="M48.92,48q-6.08,3.55-3.33,10c5.58,2.28,2.3-4.18.61-.4Q44,54,48.75,54c-.72-2.18-1.7-2.27-2.92-.28,0-2,1.11-3.17,3.29-3.37C48.3,49.16,51.25,47.69,48.92,48Z"/><path d="M64.83,23.06c4.4,4.78,2.57.94.3-1.89C63.13,21.25,66.08,19.42,64.83,23.06Z"/><path d="M62.31,104.72c.7,7.62,9.25,1.79,3.53-1.48,3.42,5.41-2.81,5.21-4.23,0C61,107.15,61.87,110.09,62.31,104.72Z"/><path d="M48.72,72.16c.32,3.45-3.2,3.3-2.69-.28,0,.08-1.14,5.16-2.4,1.9C45.07,77.51,50.55,76.06,48.72,72.16Z"/><path d="M48.72,110.07c-1.53-1.28-8.07-1.37-4.64,3.46C46.48,116.62,49.65,112.75,48.72,110.07ZM48,112.25c-3.28,4.36-6.21-4.16-.32-2.07C48.59,109.72,47.85,112.05,48,112.25Z"/><path d="M17.39,48.79c-.52-7.24-.51-13.37-1.21-12.37C17.2,39.14,16.1,52.07,17.39,48.79Z"/><path d="M28.87,122.54c-4.94-7.07-8.74,6.37-3.46,2.23q-4.25-3.17,1.93-2.6c7.88,2.62-4.59,6.6-4.53,6.53C24.32,126.72,32.77,130.62,28.87,122.54Z"/><path d="M27.67,109c-7.18-1.52-6.86,12.77.9,10a25.2,25.2,0,0,0-5-3,8.86,8.86,0,0,1,5.53-2,9.93,9.93,0,0,0-5.28-.88C19.87,109,30.73,109.91,27.67,109Z"/><path d="M26.86,100.47q4.91-6.93-4.24-6a6.77,6.77,0,0,0,5.14,1.24c1.46.56-11.79,11.19-3.32,11.83,7.22-.43,3.26-8.22,2.42-7.23Zm-1.41,3.16c.09,6.08-4.58-1.1-.68-1.38C25.93,101.77,25.59,103.22,25.45,103.63Zm2.72-1.28c1.86,4.11-2.84,5.14-1.81.27C26.21,101.93,27.8,102.58,28.17,102.35Z"/><path d="M26.76,95.72c2.46.72-.82,4.44,0,.14Z"/><path d="M11.55,7.61c2.14,5.12,1-4.38,1.78-5.58,3.78-5.71,3.74,8.3,3.45,7.43Q20.16,5.25,16.2.83,9.81.62,11.55,7.61Z"/><path d="M17.29,14.74c3.14-3.62-4.28-4.54-6-2-.43.63.67,9.89,1.72,9,.34,1.9-2.29,9.8-.91,6.93,1.78,2.05,2-1.69,3.83,1a10,10,0,0,0-.93-7.9c-.26-2.46,5.58,8.31,2.44,7.66C23.2,30.66,13.54,10.26,12.28,13Q16.29,8.37,17.29,14.74ZM14,24c3.88.84-.18,1.93-.2,1.78C13.83,29.92,12.61,26.74,14,24Zm-.71-7.82c2.28-.39.21,9.48-.1,4.45A38.79,38.79,0,0,1,13.26,16.13Z"/><path d="M17.9,78.29c-4.67-9.2-9.36,7.72-3.63,2q-3.16-4.6,2.39-2,2.73,6.38-4.33,5.71C12.82,83.2,22.69,84.44,17.9,78.29Z"/><path d="M28.57,36.72a11.51,11.51,0,0,0-6,.51C23.93,35.57,31.75,29.16,28.57,36.72Z"/><path d="M27.36,39.88C29.76,39.38,26.05,37,27.36,39.88Z"/><path d="M23.84,39.88C26.23,39.38,22.52,37,23.84,39.88Z"/><path d="M25.85,54.83,22.33,69.68c2.39-1.37,1.78-6.44,3-9.25q0,4.37.12,8.75a12.45,12.45,0,0,0,.81-8.55,77.49,77.49,0,0,1,2.09,8.5C28.93,69.48,25.53,53.46,25.85,54.83Z"/><path d="M24.24,86.11Q21.8,90.75,26,92.84c-.74-1.37-5.47-2.08-1.11-5.13A23.27,23.27,0,0,0,27.3,93a4.94,4.94,0,0,0,.47-5.76c1.68-1.13-1.88,2.29-.9,4Q27.9,86.83,24.24,86.11Z"/><path d="M13.77,25.73"/></svg>
