<svg xmlns="http://www.w3.org/2000/svg" viewBox="0 0 52 30" width="52" height="30"><rect style="fill:#333" width="52" height="30" x="0" y="0" /><path style="fill:none;stroke:#222;stroke-width:2;stroke-linecap:round" d="m 34.66,20 8.66,-5 m 0.02,0 V 5 M 34.66,20 V 30 M 43.34,5 34.66,0 m 0,0 L 26,5 m 0,0 -8.66,-5 m 0,30 V 20 m 0,-20 -8.68,5 m 8.68,15 -8.68,-5 m 0,-10 V 15 M 26,30 V 15 M 43.34,5 26,15 M 8.66,5 26,15 M 8.66,15 0,20 M 17.34,20 0,30 M 34.66,20 52,30 M 43.34,15 52,20 M 26,5 V 0 M 52,20 V 0 M 0,20 V 0" /></svg>
